<?xml version="1.0" encoding="UTF-8"?>
<svg xmlns="http://www.w3.org/2000/svg" width="66" height="66" viewBox="0 0 66 66" fill="none" style="transition: none !important; animation-duration: 0s !important; animation-delay: -0.0001s; animation-play-state: paused; fill: rgb(110, 193, 228); height: 56px; transition-property: none; visibility: visible; width: auto"><circle cx="32.5303" cy="32.5303" r="32.205" fill="white" stroke="#FF5A19" stroke-width="0.650605" style="transition: none !important; animation-duration: 0s !important; animation-delay: -0.0001s; animation-play-state: paused; fill: rgb(255, 255, 255); stroke: rgb(255, 90, 25); stroke-width: 0.650605px; transform-origin: 0px 0px; transition-property: none; visibility: visible" /><circle cx="32.5302" cy="32.5302" r="19.9248" fill="white" stroke="#FF5A19" stroke-width="0.813257" style="transition: none !important; animation-duration: 0s !important; animation-delay: -0.0001s; animation-play-state: paused; fill: rgb(255, 255, 255); stroke: rgb(255, 90, 25); stroke-width: 0.813257px; transform-origin: 0px 0px; transition-property: none; visibility: visible" /><path d="M40.2117 30.3995C39.9433 30.1196 39.6665 29.8307 39.5758 29.6119C39.495 29.4167 39.4889 29.0149 39.4835 28.6611C39.4721 27.8987 39.4576 26.9502 38.7836 26.277C38.1097 25.6038 37.162 25.5908 36.3995 25.5771C36.0458 25.5718 35.644 25.5657 35.4488 25.4848C35.23 25.3941 34.941 25.1174 34.6612 24.849C34.1214 24.3313 33.4489 23.6863 32.5302 23.6863C31.6115 23.6863 30.939 24.3313 30.3992 24.849C30.1194 25.1174 29.8304 25.3941 29.6116 25.4848C29.4164 25.5657 29.0146 25.5718 28.6609 25.5771C27.8985 25.5923 26.95 25.603 26.2783 26.2785C25.6066 26.954 25.5921 27.8987 25.5769 28.6611C25.5715 29.0149 25.5654 29.4167 25.4846 29.6119C25.3939 29.8307 25.1171 30.1196 24.8487 30.3995C24.331 30.9393 23.686 31.6155 23.686 32.5304C23.686 33.4454 24.331 34.1216 24.8487 34.6652C25.1171 34.9451 25.3939 35.234 25.4846 35.4528C25.5654 35.648 25.5715 36.0498 25.5769 36.4036C25.5883 37.166 25.6028 38.1145 26.2768 38.7877C26.9508 39.4609 27.8985 39.4739 28.6609 39.4876C29.0146 39.4929 29.4164 39.499 29.6116 39.5799C29.8304 39.6706 30.1194 39.9473 30.3992 40.2157C30.939 40.7296 31.6153 41.3746 32.5302 41.3746C33.4451 41.3746 34.1214 40.7296 34.6612 40.2119C34.941 39.9435 35.23 39.6668 35.4488 39.576C35.644 39.4952 36.0458 39.4891 36.3995 39.4838C37.162 39.4724 38.1104 39.4579 38.7836 38.7839C39.4569 38.1099 39.4698 37.1622 39.4835 36.3998C39.4889 36.046 39.495 35.6442 39.5758 35.449C39.6665 35.2302 39.9433 34.9412 40.2117 34.6614C40.7294 34.1216 41.3744 33.4492 41.3744 32.5304C41.3744 31.6117 40.7294 30.9393 40.2117 30.3995ZM38.8911 33.395C38.5237 33.7763 38.1074 34.2124 37.8855 34.7491C37.6705 35.2676 37.6621 35.8287 37.6568 36.3723C37.6507 36.781 37.6423 37.3414 37.4928 37.49C37.3434 37.6387 36.7838 37.6479 36.3751 37.654C35.8315 37.6624 35.2704 37.6707 34.7519 37.8827C34.2182 38.1046 33.7813 38.5208 33.3978 38.8883C33.1234 39.1514 32.7132 39.5448 32.5302 39.5448C32.3472 39.5448 31.937 39.1514 31.6656 38.8914C31.2844 38.5239 30.8483 38.1076 30.3115 37.8857C29.7931 37.6707 29.2319 37.6624 28.6883 37.657C28.2797 37.6509 27.7193 37.6425 27.5706 37.4931C27.4219 37.3437 27.4128 36.784 27.4067 36.3754C27.3983 35.8318 27.3899 35.2706 27.178 34.7522C26.9561 34.2185 26.5398 33.7816 26.1723 33.3981C25.9093 33.1236 25.5159 32.7134 25.5159 32.5304C25.5159 32.3475 25.9093 31.9373 26.1693 31.6659C26.5368 31.2846 26.953 30.8485 27.1749 30.3118C27.3899 29.7933 27.3983 29.2322 27.4036 28.6886C27.4128 28.2799 27.4219 27.7195 27.5744 27.5747C27.7269 27.4298 28.2835 27.4168 28.6921 27.4107C29.2358 27.4024 29.7969 27.394 30.3153 27.182C30.849 26.9601 31.2859 26.5439 31.6694 26.1764C31.937 25.9095 32.3472 25.5161 32.5302 25.5161C32.7132 25.5161 33.1234 25.9095 33.3948 26.1695C33.776 26.537 34.2121 26.9533 34.7489 27.1752C35.2673 27.3902 35.8285 27.3985 36.3721 27.4039C36.7807 27.41 37.3411 27.4184 37.4898 27.5678C37.6385 27.7172 37.6476 28.2769 37.6537 28.6855C37.6621 29.2291 37.6705 29.7903 37.8824 30.3087C38.1043 30.8424 38.5206 31.2793 38.8881 31.6628C39.1481 31.9342 39.5415 32.3444 39.5415 32.5274C39.5415 32.7104 39.1511 33.1236 38.8911 33.395ZM36.2272 30.0533C36.3125 30.1383 36.3802 30.2393 36.4264 30.3505C36.4725 30.4617 36.4963 30.581 36.4963 30.7014C36.4963 30.8218 36.4725 30.941 36.4264 31.0522C36.3802 31.1634 36.3125 31.2644 36.2272 31.3494L31.9576 35.619C31.8726 35.7043 31.7716 35.772 31.6604 35.8182C31.5492 35.8644 31.43 35.8881 31.3096 35.8881C31.1891 35.8881 31.0699 35.8644 30.9587 35.8182C30.8475 35.772 30.7465 35.7043 30.6615 35.619L28.8317 33.7892C28.7466 33.7041 28.679 33.6031 28.633 33.4919C28.5869 33.3807 28.5632 33.2615 28.5632 33.1412C28.5632 33.0208 28.5869 32.9016 28.633 32.7904C28.679 32.6792 28.7466 32.5782 28.8317 32.4931C28.9168 32.408 29.0178 32.3405 29.129 32.2944C29.2402 32.2484 29.3594 32.2247 29.4797 32.2247C29.6001 32.2247 29.7193 32.2484 29.8305 32.2944C29.9417 32.3405 30.0427 32.408 30.1278 32.4931L31.3103 33.6741L34.9326 30.051C35.0177 29.9661 35.1188 29.8988 35.2299 29.853C35.3411 29.8071 35.4602 29.7836 35.5804 29.7838C35.7006 29.7841 35.8196 29.808 35.9306 29.8542C36.0416 29.9004 36.1424 29.9681 36.2272 30.0533Z" fill="#FF5A19" style="transition: none !important; animation-duration: 0s !important; animation-delay: -0.0001s; animation-play-state: paused; fill: rgb(255, 90, 25); transform-origin: 0px 0px; transition-property: none; visibility: visible"></path></svg>