<?xml version="1.0" encoding="UTF-8"?>
<svg xmlns="http://www.w3.org/2000/svg" width="42" height="42" viewBox="0 0 42 42" fill="none" style="transition: none !important; animation-duration: 0s !important; animation-delay: -0.0001s; animation-play-state: paused; fill: rgba(2, 1, 1, 0); height: 44px; transition-property: none; visibility: visible; width: 44px"><rect x="0.4" y="0.4" width="41.2" height="41.2" rx="20.6" stroke="#E3E1E0" stroke-width="0.8" style="transition: none !important; animation-duration: 0s !important; animation-delay: -0.0001s; animation-play-state: paused; fill: rgba(2, 1, 1, 0); stroke: rgb(227, 225, 224); stroke-width: 0.8px; transform-origin: 0px 0px; transition-property: none; visibility: visible" /><path d="M27.875 12.875H14.125C13.7935 12.875 13.4755 13.0067 13.2411 13.2411C13.0067 13.4755 12.875 13.7935 12.875 14.125V27.875C12.875 28.2065 13.0067 28.5245 13.2411 28.7589C13.4755 28.9933 13.7935 29.125 14.125 29.125H27.875C28.2065 29.125 28.5245 28.9933 28.7589 28.7589C28.9933 28.5245 29.125 28.2065 29.125 27.875V14.125C29.125 13.7935 28.9933 13.4755 28.7589 13.2411C28.5245 13.0067 28.2065 12.875 27.875 12.875ZM27.875 27.875H14.125V14.125H27.875V27.875ZM18.5 19.75V24.75C18.5 24.9158 18.4342 25.0747 18.3169 25.1919C18.1997 25.3092 18.0408 25.375 17.875 25.375C17.7092 25.375 17.5503 25.3092 17.4331 25.1919C17.3158 25.0747 17.25 24.9158 17.25 24.75V19.75C17.25 19.5842 17.3158 19.4253 17.4331 19.3081C17.5503 19.1908 17.7092 19.125 17.875 19.125C18.0408 19.125 18.1997 19.1908 18.3169 19.3081C18.4342 19.4253 18.5 19.5842 18.5 19.75ZM25.375 21.9375V24.75C25.375 24.9158 25.3092 25.0747 25.1919 25.1919C25.0747 25.3092 24.9158 25.375 24.75 25.375C24.5842 25.375 24.4253 25.3092 24.3081 25.1919C24.1908 25.0747 24.125 24.9158 24.125 24.75V21.9375C24.125 21.5231 23.9604 21.1257 23.6674 20.8326C23.3743 20.5396 22.9769 20.375 22.5625 20.375C22.1481 20.375 21.7507 20.5396 21.4576 20.8326C21.1646 21.1257 21 21.5231 21 21.9375V24.75C21 24.9158 20.9342 25.0747 20.8169 25.1919C20.6997 25.3092 20.5408 25.375 20.375 25.375C20.2092 25.375 20.0503 25.3092 19.9331 25.1919C19.8158 25.0747 19.75 24.9158 19.75 24.75V19.75C19.7508 19.5969 19.8077 19.4494 19.91 19.3355C20.0123 19.2216 20.1529 19.1492 20.305 19.1321C20.4571 19.115 20.6102 19.1542 20.7353 19.2425C20.8604 19.3308 20.9488 19.4619 20.9836 19.6109C21.4064 19.3241 21.8993 19.1579 22.4095 19.1301C22.9196 19.1023 23.4277 19.214 23.8792 19.4532C24.3306 19.6924 24.7084 20.05 24.972 20.4877C25.2355 20.9254 25.3748 21.4266 25.375 21.9375ZM18.8125 17.5625C18.8125 17.7479 18.7575 17.9292 18.6545 18.0833C18.5515 18.2375 18.4051 18.3577 18.2338 18.4286C18.0625 18.4996 17.874 18.5182 17.6921 18.482C17.5102 18.4458 17.3432 18.3565 17.2121 18.2254C17.081 18.0943 16.9917 17.9273 16.9555 17.7454C16.9193 17.5635 16.9379 17.375 17.0089 17.2037C17.0798 17.0324 17.2 16.886 17.3542 16.783C17.5083 16.68 17.6896 16.625 17.875 16.625C18.1236 16.625 18.3621 16.7238 18.5379 16.8996C18.7137 17.0754 18.8125 17.3139 18.8125 17.5625Z" fill="#FF5A19" style="transition: none !important; animation-duration: 0s !important; animation-delay: -0.0001s; animation-play-state: paused; fill: rgb(255, 90, 25); transform-origin: 0px 0px; transition-property: none; visibility: visible"></path></svg>