<?xml version="1.0" encoding="UTF-8"?>
<svg xmlns="http://www.w3.org/2000/svg" width="42" height="42" viewBox="0 0 42 42" fill="none" style="transition: none !important; animation-duration: 0s !important; animation-delay: -0.0001s; animation-play-state: paused; fill: rgba(2, 1, 1, 0); height: 44px; transition-property: none; visibility: visible; width: 44px"><rect x="0.4" y="0.4" width="41.2" height="41.2" rx="20.6" stroke="#E3E1E0" stroke-width="0.8" style="transition: none !important; animation-duration: 0s !important; animation-delay: -0.0001s; animation-play-state: paused; fill: rgba(2, 1, 1, 0); stroke: rgb(227, 225, 224); stroke-width: 0.8px; transform-origin: 0px 0px; transition-property: none; visibility: visible" /><path d="M21 17.4062C20.2892 17.4062 19.5944 17.617 19.0034 18.0119C18.4124 18.4068 17.9518 18.9681 17.6798 19.6247C17.4078 20.2814 17.3366 21.004 17.4753 21.7011C17.614 22.3982 17.9562 23.0386 18.4588 23.5412C18.9614 24.0438 19.6018 24.386 20.2989 24.5247C20.996 24.6634 21.7186 24.5922 22.3753 24.3202C23.0319 24.0482 23.5932 23.5876 23.9881 22.9966C24.383 22.4056 24.5938 21.7108 24.5938 21C24.5925 20.0473 24.2135 19.1339 23.5398 18.4602C22.8661 17.7865 21.9527 17.4075 21 17.4062ZM21 23.6562C20.4746 23.6562 19.9611 23.5005 19.5243 23.2086C19.0874 22.9167 18.747 22.5019 18.5459 22.0165C18.3449 21.5311 18.2923 20.9971 18.3948 20.4818C18.4973 19.9665 18.7503 19.4932 19.1217 19.1217C19.4932 18.7503 19.9665 18.4973 20.4818 18.3948C20.9971 18.2923 21.5311 18.3449 22.0165 18.5459C22.5019 18.747 22.9167 19.0874 23.2086 19.5243C23.5005 19.9611 23.6562 20.4746 23.6562 21C23.6562 21.7045 23.3764 22.3801 22.8783 22.8783C22.3801 23.3764 21.7045 23.6562 21 23.6562ZM24.75 13.0312H17.25C16.1315 13.0325 15.0592 13.4774 14.2683 14.2683C13.4774 15.0592 13.0325 16.1315 13.0312 17.25V24.75C13.0325 25.8685 13.4774 26.9408 14.2683 27.7317C15.0592 28.5226 16.1315 28.9675 17.25 28.9688H24.75C25.8685 28.9675 26.9408 28.5226 27.7317 27.7317C28.5226 26.9408 28.9675 25.8685 28.9688 24.75V17.25C28.9675 16.1315 28.5226 15.0592 27.7317 14.2683C26.9408 13.4774 25.8685 13.0325 24.75 13.0312ZM28.0312 24.75C28.0312 25.6202 27.6855 26.4548 27.0702 27.0702C26.4548 27.6855 25.6202 28.0312 24.75 28.0312H17.25C16.3798 28.0312 15.5452 27.6855 14.9298 27.0702C14.3145 26.4548 13.9688 25.6202 13.9688 24.75V17.25C13.9688 16.3798 14.3145 15.5452 14.9298 14.9298C15.5452 14.3145 16.3798 13.9688 17.25 13.9688H24.75C25.6202 13.9688 26.4548 14.3145 27.0702 14.9298C27.6855 15.5452 28.0312 16.3798 28.0312 17.25V24.75ZM25.8438 16.9375C25.8438 17.092 25.7979 17.2431 25.7121 17.3715C25.6262 17.5 25.5042 17.6001 25.3615 17.6593C25.2187 17.7184 25.0616 17.7339 24.9101 17.7037C24.7585 17.6736 24.6193 17.5992 24.5101 17.4899C24.4008 17.3807 24.3264 17.2415 24.2963 17.0899C24.2661 16.9384 24.2816 16.7813 24.3407 16.6385C24.3998 16.4958 24.5 16.3738 24.6285 16.2879C24.7569 16.2021 24.908 16.1562 25.0625 16.1562C25.2697 16.1562 25.4684 16.2386 25.6149 16.3851C25.7614 16.5316 25.8438 16.7303 25.8438 16.9375Z" fill="#FF5A19" style="transition: none !important; animation-duration: 0s !important; animation-delay: -0.0001s; animation-play-state: paused; fill: rgb(255, 90, 25); transform-origin: 0px 0px; transition-property: none; visibility: visible"></path></svg>