<?xml version="1.0" encoding="UTF-8"?>
<svg xmlns="http://www.w3.org/2000/svg" width="16" height="16" viewBox="0 0 16 16" fill="none" style="transition: none !important; animation-duration: 0s !important; animation-delay: -0.0001s; animation-play-state: paused; fill: rgb(110, 193, 228); height: 14px; transition-property: none; visibility: visible; width: 14px"><path d="M12.8538 5.35414C12.8073 5.40063 12.7522 5.43751 12.6915 5.46267C12.6308 5.48784 12.5657 5.50079 12.5 5.50079C12.4343 5.50079 12.3692 5.48784 12.3085 5.46267C12.2478 5.43751 12.1927 5.40063 12.1462 5.35414L10 3.20727V8.00039C9.99818 9.72374 9.31278 11.376 8.09418 12.5946C6.87559 13.8132 5.22335 14.4986 3.5 14.5004C3.36739 14.5004 3.24021 14.4477 3.14645 14.3539C3.05268 14.2602 3 14.133 3 14.0004C3 13.8678 3.05268 13.7406 3.14645 13.6468C3.24021 13.5531 3.36739 13.5004 3.5 13.5004C4.95818 13.4987 6.35617 12.9187 7.38726 11.8877C8.41835 10.8566 8.99835 9.45858 9 8.00039V3.20727L6.85375 5.35414C6.75993 5.44796 6.63268 5.50067 6.5 5.50067C6.36732 5.50067 6.24007 5.44796 6.14625 5.35414C6.05243 5.26032 5.99972 5.13308 5.99972 5.00039C5.99972 4.86771 6.05243 4.74046 6.14625 4.64664L9.14625 1.64664C9.19269 1.60016 9.24783 1.56328 9.30853 1.53811C9.36923 1.51295 9.43429 1.5 9.5 1.5C9.56571 1.5 9.63077 1.51295 9.69147 1.53811C9.75217 1.56328 9.80731 1.60016 9.85375 1.64664L12.8538 4.64664C12.9002 4.69308 12.9371 4.74822 12.9623 4.80892C12.9874 4.86962 13.0004 4.93469 13.0004 5.00039C13.0004 5.0661 12.9874 5.13116 12.9623 5.19186C12.9371 5.25256 12.9002 5.30771 12.8538 5.35414Z" fill="#9F9694" style="transition: none !important; animation-duration: 0s !important; animation-delay: -0.0001s; animation-play-state: paused; fill: rgb(159, 150, 148); transform-origin: 0px 0px; transition-property: none; visibility: visible"></path></svg>