<?xml version="1.0" encoding="UTF-8"?>
<svg xmlns="http://www.w3.org/2000/svg" width="127" height="39" viewBox="0 0 127 39" fill="none" style="transition: none !important; animation-duration: 0s !important; animation-delay: -0.0001s; animation-play-state: paused; fill: rgb(110, 193, 228); height: 56px; transition-property: none; visibility: visible; width: auto"><rect width="126.04" height="38.8024" rx="5.93218" fill="white" style="transition: none !important; animation-duration: 0s !important; animation-delay: -0.0001s; animation-play-state: paused; fill: rgb(255, 255, 255); transform-origin: 0px 0px; transition-property: none; visibility: visible" /><path d="M20.2683 29.9043C26.0017 29.9043 30.6496 25.202 30.6496 19.4014C30.6496 13.6008 26.0017 8.89844 20.2683 8.89844C14.5348 8.89844 9.88696 13.6008 9.88696 19.4014C9.88696 25.202 14.5348 29.9043 20.2683 29.9043Z" fill="#FFF8F6" style="transition: none !important; animation-duration: 0s !important; animation-delay: -0.0001s; animation-play-state: paused; fill: rgb(255, 248, 246); transform-origin: 0px 0px; transition-property: none; visibility: visible"></path><g clip-path="url(#clip0_5513_134)" style="transition: none !important; animation-duration: 0s !important; animation-delay: -0.0001s; animation-play-state: paused; clip-path: url(&quot;#clip0_5513_134&quot;); fill: rgb(110, 193, 228); transform-origin: 0px 0px; transition-property: none; visibility: visible"><path d="M23.966 22.2517C23.4895 21.4153 22.7453 20.7636 21.8534 20.4015C22.2969 20.0688 22.6246 19.605 22.7899 19.0758C22.9552 18.5466 22.9498 17.9788 22.7745 17.4528C22.5992 16.9268 22.2628 16.4693 21.813 16.1451C21.3632 15.8209 20.8228 15.6465 20.2684 15.6465C19.7139 15.6465 19.1735 15.8209 18.7238 16.1451C18.274 16.4693 17.9376 16.9268 17.7623 17.4528C17.5869 17.9788 17.5815 18.5466 17.7469 19.0758C17.9122 19.605 18.2398 20.0688 18.6834 20.4015C17.7914 20.7636 17.0473 21.4153 16.5707 22.2517C16.5412 22.2992 16.5215 22.3521 16.5128 22.4074C16.5042 22.4626 16.5067 22.519 16.5203 22.5733C16.5339 22.6275 16.5582 22.6785 16.5919 22.7231C16.6255 22.7678 16.6678 22.8052 16.7163 22.8332C16.7647 22.8611 16.8182 22.8791 16.8737 22.8859C16.9292 22.8928 16.9855 22.8884 17.0393 22.8731C17.0931 22.8578 17.1432 22.8318 17.1867 22.7967C17.2302 22.7616 17.2663 22.7181 17.2927 22.6688C17.9225 21.5802 19.0348 20.9309 20.2684 20.9309C21.502 20.9309 22.6142 21.5805 23.2441 22.6688C23.3013 22.7608 23.392 22.8269 23.497 22.8532C23.602 22.8795 23.7132 22.8639 23.8069 22.8097C23.9007 22.7555 23.9697 22.667 23.9994 22.5629C24.0291 22.4588 24.0171 22.3472 23.966 22.2517ZM18.4609 18.2892C18.4609 17.9317 18.5669 17.5823 18.7655 17.285C18.9641 16.9878 19.2464 16.7561 19.5767 16.6193C19.907 16.4825 20.2704 16.4467 20.621 16.5165C20.9716 16.5862 21.2937 16.7584 21.5464 17.0111C21.7992 17.2639 21.9714 17.586 22.0411 17.9366C22.1108 18.2872 22.075 18.6506 21.9382 18.9809C21.8014 19.3112 21.5698 19.5934 21.2725 19.792C20.9753 19.9907 20.6259 20.0967 20.2684 20.0967C19.7892 20.0961 19.3298 19.9055 18.9909 19.5667C18.6521 19.2278 18.4615 18.7684 18.4609 18.2892Z" fill="#FF5A19" style="transition: none !important; animation-duration: 0s !important; animation-delay: -0.0001s; animation-play-state: paused; fill: rgb(255, 90, 25); transform-origin: 0px 0px; transition-property: none; visibility: visible"></path></g><path d="M115.266 10.8613H39.4451C38.9558 10.8613 38.5591 11.8878 38.5591 13.154V13.154C38.5591 14.4202 38.9558 15.4467 39.4451 15.4467H115.266C115.756 15.4467 116.153 14.4202 116.153 13.154C116.153 11.8878 115.756 10.8613 115.266 10.8613Z" fill="#FFF3EC" style="transition: none !important; animation-duration: 0s !important; animation-delay: -0.0001s; animation-play-state: paused; fill: rgb(255, 243, 236); transform-origin: 0px 0px; transition-property: none; visibility: visible"></path><path d="M115.266 23.3562H39.4451C38.9558 23.3562 38.5591 24.3827 38.5591 25.6489V25.6489C38.5591 26.9151 38.9558 27.9415 39.4451 27.9415H115.266C115.756 27.9415 116.153 26.9151 116.153 25.6489C116.153 24.3827 115.756 23.3562 115.266 23.3562Z" fill="#FFD5C4" style="transition: none !important; animation-duration: 0s !important; animation-delay: -0.0001s; animation-play-state: paused; fill: rgb(255, 213, 196); transform-origin: 0px 0px; transition-property: none; visibility: visible"></path><defs style="transition: none !important; animation-duration: 0s !important; visibility: visible"><clipPath id="clip0_5513_134" style="transition: none !important; animation-duration: 0s !important; animation-delay: -0.0001s; animation-play-state: paused; fill: rgb(110, 193, 228); transform-origin: 0px 0px; transition-property: none; visibility: visible"><rect width="8.89827" height="8.89827" fill="white" transform="translate(15.8191 14.9521)" style="transition: none !important; animation-duration: 0s !important; animation-delay: -0.0001s; animation-play-state: paused; fill: rgb(255, 255, 255); transform: matrix(1, 0, 0, 1, 15.8191, 14.9521); transform-origin: 0px 0px; transition-property: none; visibility: visible" /></clipPath></defs></svg>