<?xml version="1.0" encoding="UTF-8"?>
<svg xmlns="http://www.w3.org/2000/svg" width="42" height="42" viewBox="0 0 42 42" fill="none" style="transition: none !important; animation-duration: 0s !important; animation-delay: -0.0001s; animation-play-state: paused; fill: rgba(2, 1, 1, 0); height: 44px; transition-property: none; visibility: visible; width: 44px"><rect x="0.4" y="0.4" width="41.2" height="41.2" rx="20.6" stroke="#E3E1E0" stroke-width="0.8" style="transition: none !important; animation-duration: 0s !important; animation-delay: -0.0001s; animation-play-state: paused; fill: rgba(2, 1, 1, 0); stroke: rgb(227, 225, 224); stroke-width: 0.8px; transform-origin: 0px 0px; transition-property: none; visibility: visible" /><path d="M23.8469 20.4797L20.0969 17.9797C20.0027 17.9169 19.8933 17.8808 19.7802 17.8753C19.6672 17.8699 19.5548 17.8952 19.455 17.9486C19.3552 18.002 19.2718 18.0815 19.2137 18.1786C19.1556 18.2758 19.1249 18.3868 19.125 18.5V23.5C19.1249 23.6132 19.1556 23.7243 19.2137 23.8214C19.2718 23.9185 19.3552 23.998 19.455 24.0514C19.5548 24.1048 19.6672 24.1302 19.7802 24.1247C19.8933 24.1192 20.0027 24.0831 20.0969 24.0203L23.8469 21.5203C23.9326 21.4633 24.0029 21.3859 24.0515 21.2951C24.1002 21.2044 24.1256 21.103 24.1256 21C24.1256 20.897 24.1002 20.7956 24.0515 20.7049C24.0029 20.6141 23.9326 20.5367 23.8469 20.4797ZM20.375 22.332V19.6719L22.3734 21L20.375 22.332ZM29.307 16.4313C29.2334 16.1432 29.0924 15.8769 28.8955 15.6541C28.6987 15.4313 28.4517 15.2585 28.175 15.15C25.4969 14.1156 21.2344 14.125 21 14.125C20.7656 14.125 16.5031 14.1156 13.825 15.15C13.5483 15.2585 13.3013 15.4313 13.1044 15.6541C12.9076 15.8769 12.7666 16.1432 12.693 16.4313C12.4906 17.2109 12.25 18.6359 12.25 21C12.25 23.3641 12.4906 24.7891 12.693 25.5688C12.7665 25.8569 12.9075 26.1234 13.1043 26.3464C13.3011 26.5693 13.5482 26.7422 13.825 26.8508C16.3906 27.8406 20.4062 27.875 20.9484 27.875H21.0516C21.5938 27.875 25.6117 27.8406 28.175 26.8508C28.4518 26.7422 28.6989 26.5693 28.8957 26.3464C29.0925 26.1234 29.2335 25.8569 29.307 25.5688C29.5094 24.7875 29.75 23.3641 29.75 21C29.75 18.6359 29.5094 17.2109 29.307 16.4313ZM28.0969 25.2594C28.0731 25.3552 28.0269 25.4441 27.9621 25.5186C27.8973 25.5932 27.8158 25.6513 27.7242 25.6883C25.2516 26.643 21.0461 26.6258 21.0055 26.6258H21C20.9578 26.6258 16.7555 26.6414 14.2812 25.6883C14.1897 25.6513 14.1081 25.5932 14.0434 25.5186C13.9786 25.4441 13.9324 25.3552 13.9086 25.2594C13.7188 24.5461 13.5 23.232 13.5 21C13.5 18.768 13.7188 17.4539 13.9031 16.7445C13.9265 16.6481 13.9725 16.5586 14.0373 16.4835C14.1021 16.4084 14.1838 16.3498 14.2758 16.3125C16.6602 15.3914 20.6555 15.375 20.9828 15.375H21.0039C21.0461 15.375 25.2523 15.3609 27.7227 16.3125C27.8142 16.3495 27.8958 16.4076 27.9605 16.4822C28.0253 16.5567 28.0715 16.6456 28.0953 16.7414C28.2812 17.4539 28.5 18.768 28.5 21C28.5 23.232 28.2812 24.5461 28.0969 25.2555V25.2594Z" fill="#FF5A19" style="transition: none !important; animation-duration: 0s !important; animation-delay: -0.0001s; animation-play-state: paused; fill: rgb(255, 90, 25); transform-origin: 0px 0px; transition-property: none; visibility: visible"></path></svg>