<?xml version="1.0" encoding="UTF-8"?>
<svg xmlns="http://www.w3.org/2000/svg" width="42" height="42" viewBox="0 0 42 42" fill="none" style="transition: none !important; animation-duration: 0s !important; animation-delay: -0.0001s; animation-play-state: paused; fill: rgba(2, 1, 1, 0); height: 44px; transition-property: none; visibility: visible; width: 44px"><rect x="0.4" y="0.4" width="41.2" height="41.2" rx="20.6" stroke="#E3E1E0" stroke-width="0.8" style="transition: none !important; animation-duration: 0s !important; animation-delay: -0.0001s; animation-play-state: paused; fill: rgba(2, 1, 1, 0); stroke: rgb(227, 225, 224); stroke-width: 0.8px; transform-origin: 0px 0px; transition-property: none; visibility: visible" /><path d="M21 12.875C19.393 12.875 17.8221 13.3515 16.486 14.2443C15.1498 15.1371 14.1084 16.406 13.4935 17.8907C12.8785 19.3753 12.7176 21.009 13.0311 22.5851C13.3446 24.1612 14.1185 25.6089 15.2548 26.7452C16.3911 27.8815 17.8388 28.6554 19.4149 28.9689C20.991 29.2824 22.6247 29.1215 24.1093 28.5065C25.594 27.8916 26.8629 26.8502 27.7557 25.514C28.6485 24.1779 29.125 22.607 29.125 21C29.1227 18.8458 28.266 16.7805 26.7427 15.2573C25.2195 13.734 23.1542 12.8773 21 12.875ZM21.625 27.8461V22.875H23.5C23.6658 22.875 23.8247 22.8092 23.9419 22.6919C24.0592 22.5747 24.125 22.4158 24.125 22.25C24.125 22.0842 24.0592 21.9253 23.9419 21.8081C23.8247 21.6908 23.6658 21.625 23.5 21.625H21.625V19.75C21.625 19.4185 21.7567 19.1005 21.9911 18.8661C22.2255 18.6317 22.5435 18.5 22.875 18.5H24.125C24.2908 18.5 24.4497 18.4342 24.5669 18.3169C24.6842 18.1997 24.75 18.0408 24.75 17.875C24.75 17.7092 24.6842 17.5503 24.5669 17.4331C24.4497 17.3158 24.2908 17.25 24.125 17.25H22.875C22.212 17.25 21.5761 17.5134 21.1072 17.9822C20.6384 18.4511 20.375 19.087 20.375 19.75V21.625H18.5C18.3342 21.625 18.1753 21.6908 18.0581 21.8081C17.9409 21.9253 17.875 22.0842 17.875 22.25C17.875 22.4158 17.9409 22.5747 18.0581 22.6919C18.1753 22.8092 18.3342 22.875 18.5 22.875H20.375V27.8461C18.6131 27.6853 16.9811 26.8514 15.8183 25.5179C14.6556 24.1845 14.0516 22.4541 14.1321 20.6867C14.2126 18.9194 14.9714 17.2511 16.2505 16.0288C17.5297 14.8066 19.2308 14.1246 21 14.1246C22.7692 14.1246 24.4703 14.8066 25.7495 16.0288C27.0286 17.2511 27.7874 18.9194 27.8679 20.6867C27.9484 22.4541 27.3444 24.1845 26.1817 25.5179C25.0189 26.8514 23.3869 27.6853 21.625 27.8461Z" fill="#FF5A19" style="transition: none !important; animation-duration: 0s !important; animation-delay: -0.0001s; animation-play-state: paused; fill: rgb(255, 90, 25); transform-origin: 0px 0px; transition-property: none; visibility: visible"></path></svg>