<?xml version="1.0" encoding="UTF-8"?>
<svg xmlns="http://www.w3.org/2000/svg" width="203" height="203" viewBox="0 0 203 203" fill="none" style="transition: none !important; animation-duration: 0s !important; animation-delay: -0.0001s; animation-play-state: paused; fill: none; height: 197px; transition-property: none; visibility: visible; width: 197px"><g id="logoanimado" style="transition: none !important; animation-duration: 0s !important; animation-delay: -0.0001s; animation-play-state: paused; fill: none; transform-origin: 0px 0px; transition-property: none; visibility: visible"><g id="Vector" style="transition: none !important; animation-duration: 0s !important; animation-delay: -0.0001s; animation-play-state: paused; fill: none; transform-origin: 0px 0px; transition-property: none; visibility: visible"><path fill-rule="evenodd" clip-rule="evenodd" d="M106.69 93.7333C106.654 93.5783 106.15 92.9661 104.916 92.5619C104.308 92.3638 103.572 92.2382 102.77 92.2382C101.102 92.2382 99.1437 92.7758 97.4367 94.3042C93.646 97.6986 94.4838 101.79 95.6316 104.193C98.2078 102.394 100.603 100.483 102.577 98.6424C105.628 95.7974 106.582 94.1335 106.69 93.7313V93.7333Z" fill="#FA510E" style="transition: none !important; animation-duration: 0s !important; animation-delay: -0.0001s; animation-play-state: paused; fill: rgb(250, 81, 14); fill-rule: evenodd; transform-origin: 0px 0px; transition-property: none; visibility: visible"></path><path fill-rule="evenodd" clip-rule="evenodd" d="M90.2398 107.633C89.1803 105.667 88.5073 103.377 88.3641 101.115C88.1659 98.0106 88.8448 93.488 93.2065 89.5835C98.2156 85.0982 104.955 85.1335 109.025 87.486C112.027 89.2205 113.508 92.1224 112.89 95.0577C111.995 99.3075 105.432 104.976 99.9187 108.92C103.594 111.508 107.182 111.096 111.397 107.768C116.59 103.669 119.73 99.1721 122.133 95.1911V84.9942C122.133 82.5612 120.161 80.5894 117.728 80.5894H84.9932C82.5603 80.5894 80.5884 82.5612 80.5884 84.9942V112.196C83.6355 111.109 86.8886 109.577 90.2398 107.633Z" fill="#FA510E" style="transition: none !important; animation-duration: 0s !important; animation-delay: -0.0001s; animation-play-state: paused; fill: rgb(250, 81, 14); fill-rule: evenodd; transform-origin: 0px 0px; transition-property: none; visibility: visible"></path><path fill-rule="evenodd" clip-rule="evenodd" d="M115.329 112.744C111.018 116.146 106.678 117.492 102.426 116.744C99.6401 116.256 96.9364 114.853 94.3602 112.563C90.7813 114.7 85.9233 117.221 80.7277 118.832C81.2162 120.733 82.9409 122.136 84.9952 122.136H117.732C120.165 122.136 122.137 120.164 122.137 117.731V106.173C120.281 108.366 118.064 110.586 115.329 112.744Z" fill="#FA510E" style="transition: none !important; animation-duration: 0s !important; animation-delay: -0.0001s; animation-play-state: paused; fill: rgb(250, 81, 14); fill-rule: evenodd; transform-origin: 0px 0px; transition-property: none; visibility: visible"></path></g><path id="circle-reverse" d="M101.363 158.213C132.761 158.213 158.213 132.761 158.213 101.363C158.213 69.9655 132.761 44.5127 101.363 44.5127C69.9654 44.5127 44.5127 69.9655 44.5127 101.363C44.5127 132.761 69.9654 158.213 101.363 158.213Z" stroke="#FF5A19" stroke-width="7.62627" stroke-dasharray="1.27 10.17" style="transform: matrix(0.855364, -0.518027, 0.518027, 0.855364, 0, 0); transition: none !important; animation-duration: 0s !important; animation-delay: -0.0001s; animation-play-state: paused; fill: none; stroke: rgb(255, 90, 25); stroke-dasharray: 1.27px, 10.17px; stroke-width: 7.62627px; transition-property: none; visibility: visible"></path><path id="statico" opacity="0.3" d="M101.363 177.976C143.675 177.976 177.976 143.675 177.976 101.363C177.976 59.0507 143.675 24.75 101.363 24.75C59.0512 24.75 24.7505 59.0507 24.7505 101.363C24.7505 143.675 59.0512 177.976 101.363 177.976Z" stroke="#706866" stroke-width="0.733139" style="transition: none !important; animation-duration: 0s !important; animation-delay: -0.0001s; animation-play-state: paused; fill: none; opacity: 0.3; stroke: rgb(112, 104, 102); stroke-width: 0.733139px; transform-origin: 0px 0px; transition-property: none; visibility: visible"></path><path id="circle" opacity="0.5" d="M2.47217 101.363C2.47217 155.979 46.7471 200.254 101.363 200.254C155.979 200.254 200.254 155.979 200.254 101.363C200.254 46.7471 155.979 2.47217 101.363 2.47217C46.7471 2.47217 2.47217 46.7471 2.47217 101.363Z" stroke="#FF5A19" stroke-width="4.94454" stroke-dasharray="0.82 4.94" style="transform: matrix(0.942641, 0.333807, -0.333807, 0.942641, 0, 0); transition: none !important; animation-duration: 0s !important; animation-delay: -0.0001s; animation-play-state: paused; fill: none; opacity: 0.5; stroke: rgb(255, 90, 25); stroke-dasharray: 0.82px, 4.94px; stroke-width: 4.94454px; transition-property: none; visibility: visible"></path></g></svg>