<?xml version="1.0" encoding="UTF-8"?>
<svg xmlns="http://www.w3.org/2000/svg" width="14" height="14" viewBox="0 0 14 14" fill="none" style="transition: none !important; animation-duration: 0s !important; animation-delay: -0.0001s; animation-play-state: paused; fill: none; height: auto; transition-property: none; visibility: visible; width: 18px"><path d="M11.402 8.3393L7.46452 12.2768C7.40355 12.338 7.3311 12.3865 7.25134 12.4196C7.17157 12.4528 7.08605 12.4698 6.99967 12.4698C6.9133 12.4698 6.82778 12.4528 6.74801 12.4196C6.66824 12.3865 6.5958 12.338 6.53483 12.2768L2.59733 8.3393C2.47405 8.21601 2.40479 8.0488 2.40479 7.87445C2.40479 7.7001 2.47405 7.53289 2.59733 7.40961C2.72061 7.28632 2.88782 7.21706 3.06217 7.21706C3.23652 7.21706 3.40373 7.28632 3.52702 7.40961L6.34397 10.2266V2.1875C6.34397 2.01345 6.41311 1.84653 6.53618 1.72346C6.65925 1.60039 6.82617 1.53125 7.00022 1.53125C7.17427 1.53125 7.34119 1.60039 7.46426 1.72346C7.58733 1.84653 7.65647 2.01345 7.65647 2.1875V10.2266L10.4734 7.40906C10.5967 7.28578 10.7639 7.21652 10.9383 7.21652C11.1126 7.21652 11.2798 7.28578 11.4031 7.40906C11.5264 7.53235 11.5957 7.69956 11.5957 7.87391C11.5957 8.04826 11.5264 8.21547 11.4031 8.33875L11.402 8.3393Z" fill="#2C0901" style="transition: none !important; animation-duration: 0s !important; animation-delay: -0.0001s; animation-play-state: paused; fill: rgb(44, 9, 1); transform-origin: 0px 0px; transition-property: none; visibility: visible"></path></svg>