<?xml version="1.0" encoding="UTF-8"?>
<svg xmlns="http://www.w3.org/2000/svg" width="24" height="24" viewBox="0 0 24 24" fill="none" style="transition: none !important; animation-duration: 0s !important; animation-delay: -0.0001s; animation-play-state: paused; fill: rgb(110, 193, 228); height: 25px; transition-property: none; visibility: visible; width: 25px"><path d="M14.25 20.9999C14.25 21.1989 14.171 21.3896 14.0303 21.5303C13.8897 21.6709 13.6989 21.7499 13.5 21.7499H10.5C10.3011 21.7499 10.1103 21.6709 9.96965 21.5303C9.82899 21.3896 9.74998 21.1989 9.74998 20.9999C9.74998 20.801 9.82899 20.6103 9.96965 20.4696C10.1103 20.329 10.3011 20.2499 10.5 20.2499H13.5C13.6989 20.2499 13.8897 20.329 14.0303 20.4696C14.171 20.6103 14.25 20.801 14.25 20.9999ZM12 10.4999C12.2225 10.4999 12.44 10.434 12.625 10.3104C12.81 10.1867 12.9542 10.011 13.0393 9.80547C13.1245 9.5999 13.1468 9.3737 13.1034 9.15547C13.06 8.93724 12.9528 8.73679 12.7955 8.57945C12.6381 8.42212 12.4377 8.31497 12.2195 8.27157C12.0012 8.22816 11.775 8.25044 11.5695 8.33558C11.3639 8.42073 11.1882 8.56493 11.0646 8.74993C10.941 8.93494 10.875 9.15244 10.875 9.37495C10.875 9.67332 10.9935 9.95947 11.2045 10.1704C11.4155 10.3814 11.7016 10.4999 12 10.4999ZM20.9643 14.609L19.8056 19.8243C19.7506 20.072 19.6337 20.3017 19.4659 20.4919C19.298 20.6821 19.0846 20.8266 18.8457 20.9119C18.6068 20.9972 18.3502 21.0206 18.0998 20.9797C17.8494 20.9389 17.6135 20.8352 17.414 20.6784L14.8603 18.7499H9.14154L6.58591 20.6784C6.38649 20.8352 6.15056 20.9389 5.90018 20.9797C5.6498 21.0206 5.39315 20.9972 5.15424 20.9119C4.91533 20.8266 4.70196 20.6821 4.53408 20.4919C4.36621 20.3017 4.24932 20.072 4.19435 19.8243L3.0356 14.609C2.98645 14.3852 2.98893 14.1531 3.04286 13.9304C3.09679 13.7077 3.20075 13.5002 3.34685 13.3237L6.02435 10.1118C6.11422 8.93146 6.3852 7.77195 6.82779 6.67401C8.03716 3.64214 10.2028 1.73995 11.0812 1.06307C11.3442 0.85934 11.6673 0.748779 12 0.748779C12.3326 0.748779 12.6558 0.85934 12.9187 1.06307C13.7944 1.73995 15.9628 3.64214 17.1722 6.67401C17.6148 7.77195 17.8857 8.93146 17.9756 10.1118L20.6531 13.3237C20.7992 13.5002 20.9032 13.7077 20.9571 13.9304C21.011 14.1531 21.0135 14.3852 20.9643 14.609ZM9.32154 17.2499H14.6784C16.6584 13.7306 17.0287 10.3612 15.779 7.22995C14.6765 4.4662 12.6084 2.7187 12 2.24995C11.3897 2.7187 9.32154 4.4662 8.21904 7.22995C6.97122 10.3612 7.34154 13.7306 9.32154 17.2499ZM7.91529 17.7984C6.90591 15.964 6.29341 14.1612 6.07779 12.3899L4.49997 14.2837L5.65872 19.4999L5.6756 19.4878L7.91529 17.7984ZM19.5 14.2837L17.9222 12.3899C17.7084 14.1574 17.0972 15.9603 16.0884 17.7984L18.3244 19.4859L18.3412 19.4981L19.5 14.2837Z" fill="#FF5A19" style="transition: none !important; animation-duration: 0s !important; animation-delay: -0.0001s; animation-play-state: paused; fill: rgb(255, 90, 25); transform-origin: 0px 0px; transition-property: none; visibility: visible"></path></svg>