<?xml version="1.0" encoding="UTF-8"?>
<svg xmlns="http://www.w3.org/2000/svg" width="86" height="86" viewBox="0 0 86 86" fill="none" style="transition: none !important; animation-duration: 0s !important; animation-delay: -0.0001s; animation-play-state: paused; fill: rgb(110, 193, 228); height: 94px; transition-property: none; visibility: visible; width: auto"><g id="Group 1171275051" style="transition: none !important; animation-duration: 0s !important; animation-delay: -0.0001s; animation-play-state: paused; fill: rgb(110, 193, 228); transform-origin: 0px 0px; transition-property: none; visibility: visible"><g id="Group 1171275045" style="transition: none !important; animation-duration: 0s !important; animation-delay: -0.0001s; animation-play-state: paused; fill: rgb(110, 193, 228); transform-origin: 0px 0px; transition-property: none; visibility: visible"><g id="Group 10" style="transition: none !important; animation-duration: 0s !important; animation-delay: -0.0001s; animation-play-state: paused; fill: rgb(110, 193, 228); transform-origin: 0px 0px; transition-property: none; visibility: visible"><circle id="Ellipse 2" cx="42.9332" cy="42.9332" r="42.6469" fill="white" stroke="#D9D9D9" stroke-width="0.572442" style="transition: none !important; animation-duration: 0s !important; animation-delay: -0.0001s; animation-play-state: paused; fill: rgb(255, 255, 255); stroke: rgb(217, 217, 217); stroke-width: 0.572442px; transform-origin: 0px 0px; transition-property: none; visibility: visible" /><circle id="Ellipse 1" cx="42.9334" cy="42.9338" r="27.5162" fill="url(#paint0_linear_5610_164)" style="transition: none !important; animation-duration: 0s !important; animation-delay: -0.0001s; animation-play-state: paused; fill: url(&quot;#paint0_linear_5610_164&quot;); transform-origin: 0px 0px; transition-property: none; visibility: visible" /><g id="Vector" style="transition: none !important; animation-duration: 0s !important; animation-delay: -0.0001s; animation-play-state: paused; fill: rgb(110, 193, 228); transform-origin: 0px 0px; transition-property: none; visibility: visible"><path fill-rule="evenodd" clip-rule="evenodd" d="M46.7264 37.5014C46.7013 37.391 46.3422 36.9551 45.4635 36.6673C45.0305 36.5262 44.5066 36.4368 43.9352 36.4368C42.7478 36.4368 41.3535 36.8196 40.1381 37.9079C37.4391 40.3247 38.0357 43.2374 38.8529 44.9488C40.6872 43.6677 42.3929 42.307 43.7983 40.9967C45.9706 38.971 46.6496 37.7863 46.7264 37.5V37.5014Z" fill="#FA510E" style="transition: none !important; animation-duration: 0s !important; animation-delay: -0.0001s; animation-play-state: paused; fill: rgb(250, 81, 14); fill-rule: evenodd; transform-origin: 0px 0px; transition-property: none; visibility: visible"></path><path fill-rule="evenodd" clip-rule="evenodd" d="M35.0139 47.3977C34.2596 45.9979 33.7804 44.3676 33.6784 42.7569C33.5373 40.5468 34.0207 37.3267 37.1262 34.5467C40.6928 31.3531 45.4915 31.3783 48.3889 33.0533C50.5263 34.2882 51.581 36.3544 51.141 38.4443C50.5039 41.4702 45.8309 45.5062 41.9054 48.3142C44.522 50.1568 47.0771 49.8634 50.0778 47.4941C53.7757 44.5758 56.0109 41.3738 57.7222 38.5393V31.2791C57.7222 29.5468 56.3182 28.1428 54.586 28.1428H31.2784C29.5461 28.1428 28.1421 29.5468 28.1421 31.2791V50.6472C30.3116 49.8732 32.6279 48.7821 35.0139 47.3977Z" fill="#FA510E" style="transition: none !important; animation-duration: 0s !important; animation-delay: -0.0001s; animation-play-state: paused; fill: rgb(250, 81, 14); fill-rule: evenodd; transform-origin: 0px 0px; transition-property: none; visibility: visible"></path><path fill-rule="evenodd" clip-rule="evenodd" d="M52.8774 51.0369C49.8082 53.4593 46.718 54.4177 43.6907 53.8854C41.707 53.5376 39.7819 52.5387 37.9477 50.9084C35.3995 52.4297 31.9405 54.2249 28.2413 55.3718C28.5891 56.7255 29.8171 57.7244 31.2798 57.7244H54.5888C56.321 57.7244 57.725 56.3204 57.725 54.5881V46.3584C56.4035 47.9202 54.8249 49.5002 52.8774 51.0369Z" fill="#FA510E" style="transition: none !important; animation-duration: 0s !important; animation-delay: -0.0001s; animation-play-state: paused; fill: rgb(250, 81, 14); fill-rule: evenodd; transform-origin: 0px 0px; transition-property: none; visibility: visible"></path></g></g></g><g id="textcircle" style="transition: none !important; animation-duration: 0s !important; animation-delay: -0.0001s; animation-name: rotate; animation-play-state: paused; animation-timing-function: linear; fill: rgb(110, 193, 228); transform-origin: 43px 43px; transition-property: none; visibility: visible"><g id="Vector_2" style="transition: none !important; animation-duration: 0s !important; animation-delay: -0.0001s; animation-play-state: paused; fill: rgb(110, 193, 228); transform-origin: 0px 0px; transition-property: none; visibility: visible"><path d="M46.0004 9.0301L45.7394 8.139L44.2575 8.04476L43.8888 8.89582L43.1588 8.8494L44.8756 5.19946L45.5054 5.23951L46.743 9.07732L46.0004 9.0301ZM44.4862 7.5151L45.5827 7.58483L45.1281 6.02711L44.4862 7.5151Z" fill="#FF5A19" style="transition: none !important; animation-duration: 0s !important; animation-delay: -0.0001s; animation-play-state: paused; fill: rgb(255, 90, 25); transform-origin: 0px 0px; transition-property: none; visibility: visible"></path><path d="M52.8354 7.15671L52.7144 7.6539C52.4399 7.58708 52.2749 7.548 52.2195 7.53667C52.3507 7.74093 52.3849 7.97219 52.322 8.23045C52.2532 8.51311 52.0959 8.71714 51.8499 8.84252C51.6066 8.96637 51.309 8.98547 50.9572 8.89984C50.7721 8.85479 50.6174 8.7956 50.4931 8.72226C50.4238 8.75924 50.3817 8.80823 50.3669 8.86924C50.352 8.93024 50.365 8.98296 50.4059 9.02737C50.4468 9.07179 50.5242 9.11217 50.6381 9.14852L51.4484 9.41684C51.69 9.49504 51.8656 9.60994 51.9752 9.76154C52.0873 9.91161 52.1169 10.0954 52.0639 10.313C51.9966 10.5896 51.8145 10.7757 51.5176 10.8715C51.2228 10.9677 50.8476 10.9604 50.3921 10.8495C49.5807 10.652 49.2305 10.3255 49.3413 9.87002C49.4072 9.59956 49.6045 9.42143 49.9335 9.33563C49.794 9.19183 49.747 9.02639 49.7926 8.8393C49.8396 8.64612 49.9633 8.50499 50.1638 8.41593C50.0204 8.2087 49.9843 7.95867 50.0556 7.66584C50.1274 7.37098 50.2849 7.16162 50.5283 7.03778C50.7717 6.91393 51.0703 6.89507 51.4242 6.9812C51.5157 7.00348 51.6103 7.03512 51.708 7.07614C52.116 7.0462 52.4918 7.07305 52.8354 7.15671ZM51.0737 8.42094C51.4337 8.50856 51.6527 8.39171 51.7309 8.07042C51.7691 7.91383 51.7512 7.78349 51.6775 7.67938C51.6058 7.57576 51.4825 7.50267 51.3076 7.4601C51.1348 7.41802 50.9917 7.42627 50.8783 7.48484C50.767 7.54391 50.6923 7.65174 50.6542 7.80832C50.576 8.12961 50.7158 8.33382 51.0737 8.42094ZM51.146 9.88928L50.2991 9.61205C50.0938 9.65038 49.9721 9.74783 49.9339 9.90441C49.9062 10.0183 49.9368 10.114 50.0256 10.1917C50.1159 10.2718 50.2841 10.3418 50.5302 10.4017C50.8311 10.475 51.0544 10.4959 51.1999 10.4646C51.3449 10.4353 51.4322 10.3596 51.4619 10.2376C51.4822 10.1542 51.4676 10.086 51.418 10.033C51.3684 9.98003 51.2778 9.93211 51.146 9.88928Z" fill="#FF5A19" style="transition: none !important; animation-duration: 0s !important; animation-delay: -0.0001s; animation-play-state: paused; fill: rgb(255, 90, 25); transform-origin: 0px 0px; transition-property: none; visibility: visible"></path><path d="M55.4646 8.17684C55.8321 8.31149 56.0774 8.52399 56.2006 8.81432C56.3245 9.10269 56.3094 9.45714 56.1553 9.87768C56.1035 10.0192 56.0627 10.1246 56.0328 10.1939L54.2111 9.52637C54.103 10.0039 54.3034 10.3359 54.8124 10.5224C55.1052 10.6297 55.406 10.6786 55.7149 10.6692L55.5226 11.1939C55.1916 11.1907 54.8562 11.1269 54.5162 11.0023C54.074 10.8403 53.7793 10.5952 53.6321 10.2671C53.4868 9.93969 53.4941 9.55786 53.654 9.1216C53.8117 8.69124 54.0526 8.38946 54.3769 8.21628C54.7011 8.04309 55.0637 8.02995 55.4646 8.17684ZM55.2646 8.69535C55.0916 8.63198 54.9284 8.63346 54.7748 8.69977C54.6219 8.76413 54.492 8.89371 54.3849 9.08853L55.6053 9.53569C55.7397 9.10795 55.6261 8.82784 55.2646 8.69535Z" fill="#FF5A19" style="transition: none !important; animation-duration: 0s !important; animation-delay: -0.0001s; animation-play-state: paused; fill: rgb(255, 90, 25); transform-origin: 0px 0px; transition-property: none; visibility: visible"></path><path d="M59.574 9.94418C60.2183 10.2701 60.3648 10.7805 60.0133 11.4752L59.2324 13.0187L58.6386 12.7182L59.3953 11.2224C59.5919 10.8339 59.5183 10.5528 59.1747 10.3789C58.9356 10.258 58.6792 10.2502 58.4054 10.3557L57.5012 12.1429L56.9102 11.8439L58.18 9.3339L58.6814 9.58757L58.6044 9.84414C58.9296 9.74833 59.2528 9.78167 59.574 9.94418Z" fill="#FF5A19" style="transition: none !important; animation-duration: 0s !important; animation-delay: -0.0001s; animation-play-state: paused; fill: rgb(255, 90, 25); transform-origin: 0px 0px; transition-property: none; visibility: visible"></path><path d="M61.9292 14.0716C62.0926 14.1774 62.2738 14.2499 62.4728 14.2891L62.1742 14.7502C61.9372 14.6965 61.694 14.5888 61.4445 14.4272C61.1547 14.2395 60.9922 14.0283 60.9572 13.7937C60.9239 13.5601 61.0074 13.2888 61.2077 12.9796L61.863 11.9678L61.5047 11.7357L61.8221 11.2456L62.1937 11.4863L62.7279 10.9907L63.1178 11.2433L62.7338 11.8361L63.6244 12.413L63.307 12.9031L62.4164 12.3262L61.7986 13.2801C61.6814 13.461 61.6326 13.6114 61.6521 13.7313C61.6717 13.8512 61.7641 13.9647 61.9292 14.0716Z" fill="#FF5A19" style="transition: none !important; animation-duration: 0s !important; animation-delay: -0.0001s; animation-play-state: paused; fill: rgb(255, 90, 25); transform-origin: 0px 0px; transition-property: none; visibility: visible"></path><path d="M65.9056 13.9911C66.2107 14.2361 66.3752 14.5159 66.3992 14.8304C66.4244 15.1432 66.2968 15.4743 66.0163 15.8235C65.922 15.941 65.8496 16.0278 65.7991 16.0839L64.2864 14.869C64.0313 15.2869 64.1151 15.6656 64.5378 16.005C64.7809 16.2003 65.0503 16.3428 65.3459 16.4326L64.996 16.8683C64.6834 16.7595 64.386 16.5917 64.1037 16.365C63.7365 16.0701 63.5356 15.7437 63.501 15.3857C63.468 15.0291 63.597 14.6696 63.8879 14.3074C64.1749 13.95 64.4997 13.7411 64.8623 13.6807C65.2249 13.6202 65.5727 13.7237 65.9056 13.9911ZM65.5503 14.4184C65.4067 14.3031 65.2515 14.2523 65.0848 14.266C64.9194 14.2781 64.7548 14.3594 64.5911 14.5097L65.6044 15.3236C65.8686 14.9613 65.8505 14.6595 65.5503 14.4184Z" fill="#FF5A19" style="transition: none !important; animation-duration: 0s !important; animation-delay: -0.0001s; animation-play-state: paused; fill: rgb(255, 90, 25); transform-origin: 0px 0px; transition-property: none; visibility: visible"></path><path d="M67.9996 19.9954C67.7186 19.6823 67.5317 19.3847 67.4387 19.1025L67.8756 18.7104C67.9688 19.043 68.1363 19.344 68.3782 19.6135C68.5221 19.7739 68.6458 19.8725 68.749 19.9092C68.8552 19.946 68.9511 19.926 69.0368 19.8491C69.1162 19.7778 69.1446 19.6919 69.1219 19.5914C69.1005 19.4924 69.0174 19.3308 68.8724 19.1066C68.6937 18.8198 68.6017 18.5747 68.5964 18.3714C68.5925 18.1696 68.6824 17.9863 68.8662 17.8213C69.0765 17.6326 69.3063 17.5628 69.5556 17.6118C69.8063 17.6624 70.0582 17.8287 70.3112 18.1106C70.5614 18.3894 70.7354 18.6522 70.8333 18.8991L70.415 19.2744C70.296 18.982 70.1309 18.7181 69.9198 18.4829C69.7912 18.3396 69.6796 18.2513 69.5851 18.2181C69.4921 18.1834 69.409 18.1989 69.3358 18.2646C69.2642 18.3289 69.2412 18.4114 69.2669 18.5121C69.2939 18.6144 69.3839 18.7867 69.5368 19.0291C69.7172 19.3116 69.805 19.552 69.8002 19.7503C69.7984 19.9488 69.6993 20.1361 69.5031 20.3123C69.2866 20.5066 69.0486 20.5767 68.7892 20.5227C68.5298 20.4686 68.2666 20.2929 67.9996 19.9954Z" fill="#FF5A19" style="transition: none !important; animation-duration: 0s !important; animation-delay: -0.0001s; animation-play-state: paused; fill: rgb(255, 90, 25); transform-origin: 0px 0px; transition-property: none; visibility: visible"></path><path d="M72.8133 21.1776C73.0422 21.495 73.1263 21.8085 73.0657 22.118C73.0067 22.4263 72.7956 22.7114 72.4323 22.9734C72.3101 23.0615 72.2172 23.1259 72.1536 23.1666L71.0189 21.5929C70.6618 21.9278 70.6417 22.3151 70.9588 22.7548C71.1412 23.0078 71.3629 23.2169 71.624 23.3821L71.1707 23.7089C70.8983 23.5209 70.6563 23.28 70.4445 22.9863C70.1691 22.6043 70.0623 22.2362 70.1242 21.882C70.1874 21.5294 70.4074 21.2172 70.7842 20.9455C71.156 20.6774 71.5247 20.5625 71.8903 20.6007C72.2559 20.639 72.5636 20.8313 72.8133 21.1776ZM72.3571 21.495C72.2494 21.3456 72.1133 21.2553 71.9489 21.2242C71.7863 21.1918 71.606 21.2263 71.4082 21.3277L72.1684 22.3819C72.5194 22.103 72.5823 21.8073 72.3571 21.495Z" fill="#FF5A19" style="transition: none !important; animation-duration: 0s !important; animation-delay: -0.0001s; animation-play-state: paused; fill: rgb(255, 90, 25); transform-origin: 0px 0px; transition-property: none; visibility: visible"></path><path d="M71.9058 25.0013L75.3576 22.9439L75.6967 23.5129L72.2449 25.5703L71.9058 25.0013Z" fill="#FF5A19" style="transition: none !important; animation-duration: 0s !important; animation-delay: -0.0001s; animation-play-state: paused; fill: rgb(255, 90, 25); transform-origin: 0px 0px; transition-property: none; visibility: visible"></path><path d="M76.1496 26.6997C76.3198 27.0522 76.348 27.3755 76.2344 27.6697C76.1227 27.9631 75.8652 28.2071 75.4618 28.4018C75.3261 28.4673 75.2234 28.5145 75.1537 28.5435L74.3103 26.7963C73.9003 27.064 73.8132 27.4419 74.0488 27.93C74.1844 28.2109 74.3663 28.4554 74.5947 28.6635L74.0914 28.9065C73.8559 28.6739 73.6595 28.3945 73.5021 28.0684C73.2974 27.6444 73.2563 27.2633 73.379 26.9252C73.5025 26.589 73.7735 26.3199 74.192 26.1179C74.6047 25.9186 74.9878 25.8697 75.3411 25.971C75.6945 26.0723 75.964 26.3152 76.1496 26.6997ZM75.6451 26.9328C75.565 26.767 75.4468 26.6544 75.2904 26.5951C75.1358 26.5349 74.9523 26.5375 74.7398 26.6029L75.3049 27.7734C75.6991 27.5598 75.8125 27.2796 75.6451 26.9328Z" fill="#FF5A19" style="transition: none !important; animation-duration: 0s !important; animation-delay: -0.0001s; animation-play-state: paused; fill: rgb(255, 90, 25); transform-origin: 0px 0px; transition-property: none; visibility: visible"></path><path d="M74.9632 31.5421C74.8074 31.1066 74.811 30.7285 74.9742 30.4078C75.1393 30.0865 75.4386 29.8482 75.8721 29.6931C76.2938 29.5422 76.6798 29.5464 77.0302 29.7056C77.3813 29.8667 77.6354 30.167 77.7926 30.6064C77.885 30.8646 77.9234 31.0931 77.9079 31.2921L77.367 31.4856C77.3864 31.2853 77.3538 31.0668 77.2692 30.8304C77.1755 30.5683 77.026 30.3928 76.8208 30.3039C76.6157 30.2151 76.3781 30.219 76.1081 30.3155C75.8381 30.4121 75.6493 30.5553 75.5416 30.745C75.4365 30.9359 75.4305 31.1615 75.5236 31.4216C75.6046 31.6482 75.7315 31.8473 75.904 32.019L75.3572 32.2146C75.1939 32.0441 75.0626 31.8199 74.9632 31.5421Z" fill="#FF5A19" style="transition: none !important; animation-duration: 0s !important; animation-delay: -0.0001s; animation-play-state: paused; fill: rgb(255, 90, 25); transform-origin: 0px 0px; transition-property: none; visibility: visible"></path><path d="M79.0048 32.9466C78.9712 32.8213 78.9795 32.7107 79.0296 32.6149C79.0818 32.5186 79.1705 32.4536 79.2959 32.42C79.4232 32.3858 79.5336 32.3974 79.627 32.4547C79.7209 32.514 79.7844 32.6053 79.8174 32.7286C79.8516 32.856 79.8426 32.9678 79.7904 33.0642C79.7388 33.1625 79.6493 33.2288 79.522 33.2629C79.3966 33.2966 79.287 33.2837 79.1931 33.2244C79.1017 33.1666 79.039 33.074 79.0048 32.9466ZM75.6841 33.4961L78.4009 32.7673L78.5725 33.4071L75.8557 34.1358L75.6841 33.4961Z" fill="#FF5A19" style="transition: none !important; animation-duration: 0s !important; animation-delay: -0.0001s; animation-play-state: paused; fill: rgb(255, 90, 25); transform-origin: 0px 0px; transition-property: none; visibility: visible"></path><path d="M76.3812 36.8509C76.3061 36.4136 76.3771 36.0478 76.5941 35.7536C76.8111 35.4594 77.1445 35.2737 77.5942 35.1965C78.048 35.1185 78.4299 35.1846 78.7399 35.3947C79.052 35.6044 79.2457 35.929 79.3212 36.3683C79.3963 36.8056 79.3253 37.1714 79.1082 37.4656C78.8916 37.7619 78.5594 37.9485 78.1118 38.0253C77.658 38.1032 77.2749 38.0363 76.9625 37.8245C76.6504 37.6148 76.4566 37.2902 76.3812 36.8509ZM76.9428 36.764C76.9835 37.0012 77.0948 37.1732 77.2767 37.28C77.461 37.3885 77.6964 37.4182 77.9832 37.3689C78.2719 37.3193 78.483 37.213 78.6164 37.05C78.7522 36.8886 78.7998 36.6893 78.759 36.4521C78.7187 36.217 78.6063 36.0451 78.4221 35.9366C78.2402 35.8298 78.0069 35.8009 77.7223 35.8497C77.4335 35.8993 77.2212 36.0048 77.0854 36.1661C76.95 36.3296 76.9024 36.5288 76.9428 36.764Z" fill="#FF5A19" style="transition: none !important; animation-duration: 0s !important; animation-delay: -0.0001s; animation-play-state: paused; fill: rgb(255, 90, 25); transform-origin: 0px 0px; transition-property: none; visibility: visible"></path><path d="M79.8546 41.0107C79.8905 41.7319 79.5197 42.1119 78.7421 42.1506L77.0145 42.2367L76.9813 41.572L78.6557 41.4885C79.0905 41.4669 79.2983 41.2637 79.2791 40.8791C79.2658 40.6116 79.1455 40.385 78.9183 40.1993L76.9179 40.299L76.8849 39.6374L79.6943 39.4974L79.7223 40.0587L79.4612 40.1188C79.7056 40.3539 79.8367 40.6512 79.8546 41.0107Z" fill="#FF5A19" style="transition: none !important; animation-duration: 0s !important; animation-delay: -0.0001s; animation-play-state: paused; fill: rgb(255, 90, 25); transform-origin: 0px 0px; transition-property: none; visibility: visible"></path><path d="M79.8492 45.0131C79.82 45.4538 79.7041 45.7639 79.5013 45.9434C79.3005 46.1252 78.9934 46.2024 78.5799 46.1751L76.8758 46.0624L76.9129 45.5017L77.1503 45.4796C76.9529 45.2295 76.8669 44.9124 76.8923 44.5281C76.9117 44.2358 77.002 44.0121 77.1633 43.857C77.3244 43.7041 77.5376 43.6364 77.8028 43.6539C78.0743 43.6719 78.2821 43.78 78.4263 43.9783C78.5705 44.1766 78.6317 44.4408 78.6099 44.7707C78.5915 45.0485 78.5397 45.2925 78.4545 45.5029L78.6737 45.5174C78.87 45.5304 79.0156 45.4866 79.1103 45.3859C79.2072 45.2853 79.2633 45.1181 79.2788 44.8842C79.3003 44.5584 79.2623 44.2612 79.1647 43.9925L79.7442 44.0309C79.8374 44.3349 79.8724 44.6623 79.8492 45.0131ZM77.387 44.7559C77.3689 45.0295 77.4449 45.26 77.615 45.4474L78.0034 45.4731C78.0819 45.2686 78.1274 45.0723 78.1399 44.8843C78.1636 44.5252 78.0471 44.3371 77.7902 44.3201C77.5417 44.3036 77.4073 44.4489 77.387 44.7559Z" fill="#FF5A19" style="transition: none !important; animation-duration: 0s !important; animation-delay: -0.0001s; animation-play-state: paused; fill: rgb(255, 90, 25); transform-origin: 0px 0px; transition-property: none; visibility: visible"></path><path d="M75.8779 47.2743C76.1083 47.5806 76.3435 47.7522 76.5835 47.7889L76.5869 47.7672C76.6046 47.6513 76.6564 47.5619 76.7423 47.4988C76.8302 47.4361 76.9373 47.4143 77.0635 47.4337C77.1938 47.4536 77.2911 47.5098 77.3553 47.6022C77.4216 47.6949 77.4445 47.8075 77.4243 47.9399C77.3758 48.2564 77.154 48.3844 76.7589 48.3239C76.5913 48.2983 76.4234 48.2334 76.2551 48.1293C76.0868 48.0252 75.9375 47.8943 75.8071 47.7367L75.8779 47.2743Z" fill="#FF5A19" style="transition: none !important; animation-duration: 0s !important; animation-delay: -0.0001s; animation-play-state: paused; fill: rgb(255, 90, 25); transform-origin: 0px 0px; transition-property: none; visibility: visible"></path><path d="M78.1169 54.0559L77.9116 54.7383L75.5497 52.825L75.7368 52.2026L78.7623 51.9093L78.549 52.6188L77.3997 52.6797C76.945 52.7091 76.5686 52.7216 76.2705 52.7172C76.502 52.8633 76.8134 53.0815 77.2047 53.3718L78.1169 54.0559Z" fill="#FF5A19" style="transition: none !important; animation-duration: 0s !important; animation-delay: -0.0001s; animation-play-state: paused; fill: rgb(255, 90, 25); transform-origin: 0px 0px; transition-property: none; visibility: visible"></path><path d="M74.2772 56.1139C74.4532 55.7066 74.7125 55.439 75.055 55.3111C75.3975 55.1832 75.7782 55.2098 76.197 55.3908C76.6197 55.5734 76.9035 55.8374 77.0484 56.1827C77.1952 56.5289 77.1802 56.9065 77.0034 57.3158C76.8274 57.7231 76.5681 57.9907 76.2256 58.1185C75.8823 58.2483 75.5021 58.2231 75.0852 58.043C74.6626 57.8604 74.3782 57.595 74.2322 57.2469C74.0854 56.9008 74.1004 56.5231 74.2772 56.1139ZM74.7951 56.3479C74.6997 56.5688 74.6989 56.7737 74.7929 56.9625C74.8879 57.1541 75.069 57.3075 75.3361 57.4229C75.605 57.5392 75.8399 57.5654 76.0407 57.5017C76.2426 57.4407 76.3913 57.2998 76.4868 57.0788C76.5814 56.8598 76.5812 56.6545 76.4861 56.463C76.3921 56.2742 76.2126 56.1225 75.9475 56.0079C75.6785 55.8917 75.4431 55.8641 75.2412 55.925C75.0384 55.9879 74.8898 56.1289 74.7951 56.3479Z" fill="#FF5A19" style="transition: none !important; animation-duration: 0s !important; animation-delay: -0.0001s; animation-play-state: paused; fill: rgb(255, 90, 25); transform-origin: 0px 0px; transition-property: none; visibility: visible"></path><path d="M72.4681 59.7712C72.697 59.3693 72.9863 59.1258 73.3358 59.0407C73.6872 58.9566 74.0629 59.0285 74.463 59.2565C74.8522 59.4781 75.1005 59.7738 75.2079 60.1433C75.3143 60.5146 75.252 60.903 75.021 61.3086C74.8853 61.5468 74.7369 61.7248 74.5759 61.8426L74.0767 61.5583C74.2414 61.4425 74.3859 61.2755 74.5102 61.0573C74.648 60.8155 74.6838 60.5877 74.6175 60.3742C74.5513 60.1606 74.3936 59.9829 74.1445 59.841C73.8953 59.699 73.6637 59.649 73.4496 59.6908C73.2363 59.7355 73.0612 59.8779 72.9245 60.1179C72.8054 60.327 72.7369 60.553 72.719 60.7957L72.2144 60.5082C72.2374 60.2733 72.322 60.0276 72.4681 59.7712Z" fill="#FF5A19" style="transition: none !important; animation-duration: 0s !important; animation-delay: -0.0001s; animation-play-state: paused; fill: rgb(255, 90, 25); transform-origin: 0px 0px; transition-property: none; visibility: visible"></path><path d="M73.853 64.7415L73.7805 63.7501L74.2305 63.7101L74.4267 65.1536L73.0063 65.4359L72.8959 64.9817L73.853 64.7415ZM73.1189 64.2837C72.8905 64.6016 72.62 64.7809 72.3073 64.8217C71.9962 64.8637 71.6588 64.7541 71.2951 64.4928C71.1727 64.4049 71.0821 64.3373 71.0233 64.2899L72.1552 62.7141C71.7242 62.4819 71.3506 62.5859 71.0343 63.0261C70.8524 63.2794 70.7245 63.5561 70.6508 63.8561L70.1969 63.5301C70.2887 63.2121 70.4403 62.9061 70.6515 62.612C70.9262 62.2295 71.2414 62.0114 71.597 61.9576C71.9513 61.9055 72.3172 62.015 72.6946 62.286C73.0668 62.5534 73.2929 62.8665 73.3727 63.2253C73.4526 63.5842 73.3679 63.937 73.1189 64.2837ZM72.673 63.9519C72.7805 63.8023 72.8229 63.6447 72.8002 63.4789C72.7792 63.3144 72.6893 63.1544 72.5303 62.999L71.7721 64.0547C72.1481 64.2989 72.4484 64.2647 72.673 63.9519Z" fill="#FF5A19" style="transition: none !important; animation-duration: 0s !important; animation-delay: -0.0001s; animation-play-state: paused; fill: rgb(255, 90, 25); transform-origin: 0px 0px; transition-property: none; visibility: visible"></path><path d="M66.9769 66.9554C67.3036 66.628 67.6468 66.4693 68.0064 66.4793C68.3675 66.4907 68.711 66.6591 69.0369 66.9843C69.354 67.3007 69.5157 67.6512 69.522 68.036C69.5269 68.4222 69.3644 68.7806 69.0348 69.1109C68.8411 69.305 68.6511 69.4377 68.4647 69.5089L68.058 69.1031C68.2474 69.0348 68.4308 68.9118 68.6082 68.734C68.8048 68.537 68.8993 68.3267 68.8916 68.1033C68.884 67.8798 68.7787 67.6668 68.5757 67.4643C68.3728 67.2617 68.1625 67.1525 67.9449 67.1364C67.7274 67.1233 67.521 67.2146 67.3259 67.4101C67.1559 67.5805 67.0303 67.7804 66.9491 68.0099L66.538 67.5997C66.6222 67.3791 66.7684 67.1643 66.9769 66.9554Z" fill="#FF5A19" style="transition: none !important; animation-duration: 0s !important; animation-delay: -0.0001s; animation-play-state: paused; fill: rgb(255, 90, 25); transform-origin: 0px 0px; transition-property: none; visibility: visible"></path><path d="M66.2691 71.6064C66.1904 71.6721 66.121 71.7164 66.061 71.7393L65.6484 71.2454C65.7159 71.2217 65.7978 71.1696 65.8942 71.0891C66.1255 70.8959 66.2208 70.6281 66.1802 70.2857L65.0088 68.8835L65.5172 68.4588L67.3206 70.6175L66.8893 70.9777L66.6382 70.7702C66.6395 71.121 66.5164 71.3997 66.2691 71.6064Z" fill="#FF5A19" style="transition: none !important; animation-duration: 0s !important; animation-delay: -0.0001s; animation-play-state: paused; fill: rgb(255, 90, 25); transform-origin: 0px 0px; transition-property: none; visibility: visible"></path><path d="M63.9458 73.3471C63.6225 73.5676 63.3069 73.6435 62.9991 73.5748C62.6925 73.5077 62.413 73.2892 62.1606 72.9192C62.0757 72.7947 62.0138 72.7002 61.9748 72.6356L63.5776 71.5424C63.2522 71.1767 62.8655 71.1465 62.4177 71.4519C62.1601 71.6276 61.9453 71.8438 61.7732 72.1004L61.4584 71.6388C61.6535 71.3714 61.9006 71.1357 62.1998 70.9317C62.5888 70.6664 62.9596 70.5693 63.3121 70.6405C63.6629 70.7129 63.9692 70.941 64.231 71.3248C64.4893 71.7035 64.5945 72.0751 64.5467 72.4395C64.4988 72.804 64.2985 73.1065 63.9458 73.3471ZM63.6405 72.8827C63.7927 72.7789 63.8865 72.6453 63.9219 72.4818C63.9585 72.32 63.9287 72.139 63.8326 71.9385L62.7588 72.6708C63.0285 73.0291 63.3224 73.0997 63.6405 72.8827Z" fill="#FF5A19" style="transition: none !important; animation-duration: 0s !important; animation-delay: -0.0001s; animation-play-state: paused; fill: rgb(255, 90, 25); transform-origin: 0px 0px; transition-property: none; visibility: visible"></path><path d="M59.3034 72.7203C59.6743 72.5217 60.0078 72.4108 60.3039 72.3876L60.581 72.9051C60.2359 72.9166 59.9037 73.0078 59.5845 73.1787C59.3944 73.2805 59.2693 73.3772 59.2091 73.4687C59.1481 73.5631 59.1448 73.6611 59.1991 73.7625C59.2495 73.8566 59.3262 73.9046 59.4292 73.9064C59.5304 73.9092 59.7072 73.8668 59.9594 73.7792C60.2804 73.6738 60.5403 73.6427 60.7391 73.6858C60.936 73.7299 61.0928 73.8608 61.2094 74.0786C61.3427 74.3276 61.356 74.5675 61.2491 74.798C61.1404 75.0295 60.9191 75.2346 60.5851 75.4134C60.2549 75.5903 59.9582 75.6969 59.6952 75.7333L59.4299 75.2379C59.7423 75.1917 60.0378 75.094 60.3164 74.9448C60.4862 74.8539 60.5984 74.7665 60.6532 74.6826C60.709 74.6005 60.7136 74.5161 60.6672 74.4294C60.6217 74.3445 60.5471 74.3026 60.4432 74.3036C60.3374 74.3056 60.1486 74.3521 59.8768 74.4431C59.5596 74.5512 59.3053 74.5793 59.1137 74.5276C58.9213 74.4786 58.7629 74.3379 58.6384 74.1055C58.5011 73.849 58.4895 73.6012 58.6036 73.362C58.7177 73.1229 58.951 72.909 59.3034 72.7203Z" fill="#FF5A19" style="transition: none !important; animation-duration: 0s !important; animation-delay: -0.0001s; animation-play-state: paused; fill: rgb(255, 90, 25); transform-origin: 0px 0px; transition-property: none; visibility: visible"></path><path d="M55.8445 74.3713C56.2722 74.1952 56.65 74.181 56.978 74.3289C57.3068 74.4787 57.5589 74.7664 57.7342 75.1922C57.9048 75.6063 57.9188 75.9921 57.7763 76.3496C57.6318 76.7079 57.3439 76.9759 56.9123 77.1536C56.6588 77.258 56.4323 77.3071 56.2329 77.301L56.0141 76.7698C56.2151 76.7798 56.4318 76.737 56.664 76.6413C56.9214 76.5353 57.0896 76.3778 57.1687 76.1686C57.2478 75.9595 57.2328 75.7224 57.1236 75.4573C57.0144 75.1921 56.8625 75.0102 56.668 74.9115C56.4723 74.8156 56.2467 74.8202 55.9913 74.9254C55.7687 75.0171 55.5758 75.1531 55.4124 75.3336L55.1912 74.7965C55.3539 74.6254 55.5717 74.4837 55.8445 74.3713Z" fill="#FF5A19" style="transition: none !important; animation-duration: 0s !important; animation-delay: -0.0001s; animation-play-state: paused; fill: rgb(255, 90, 25); transform-origin: 0px 0px; transition-property: none; visibility: visible"></path><path d="M53.5873 78.3274C53.2118 78.4374 52.8882 78.4123 52.6166 78.2519C52.3456 78.0936 52.1471 77.7995 52.0212 77.3697C51.9789 77.2251 51.9491 77.116 51.9319 77.0426L53.7938 76.4972C53.5971 76.0489 53.2386 75.9009 52.7184 76.0533C52.4191 76.1409 52.1481 76.2803 51.9053 76.4713L51.7482 75.9351C52.0163 75.741 52.3241 75.593 52.6715 75.4912C53.1235 75.3589 53.5061 75.3809 53.8195 75.5574C54.1309 75.7344 54.3519 76.0459 54.4825 76.4918C54.6113 76.9316 54.5968 77.3175 54.4388 77.6495C54.2809 77.9814 53.9971 78.2074 53.5873 78.3274ZM53.4402 77.7915C53.6169 77.7397 53.7474 77.6416 53.8315 77.497C53.9162 77.3544 53.9438 77.1729 53.9141 76.9526L52.6669 77.318C52.8128 77.7419 53.0706 77.8998 53.4402 77.7915Z" fill="#FF5A19" style="transition: none !important; animation-duration: 0s !important; animation-delay: -0.0001s; animation-play-state: paused; fill: rgb(255, 90, 25); transform-origin: 0px 0px; transition-property: none; visibility: visible"></path><path d="M50.951 79.8907L50.2796 80.0232L49.819 77.3654L50.3672 77.2572L50.951 79.8907ZM49.5771 76.3667C49.6409 76.2795 49.7396 76.2227 49.873 76.1963C50.0065 76.17 50.1214 76.1846 50.2177 76.2403C50.3144 76.298 50.3758 76.3926 50.4017 76.524C50.428 76.6574 50.4074 76.7692 50.3399 76.8594C50.2724 76.9495 50.1719 77.0077 50.0384 77.0341C49.9049 77.0604 49.7919 77.0443 49.6993 76.9858C49.6071 76.9293 49.5476 76.8333 49.5208 76.6978C49.4949 76.5664 49.5137 76.456 49.5771 76.3667Z" fill="#FF5A19" style="transition: none !important; animation-duration: 0s !important; animation-delay: -0.0001s; animation-play-state: paused; fill: rgb(255, 90, 25); transform-origin: 0px 0px; transition-property: none; visibility: visible"></path><path d="M45.6027 78.4431C45.679 78.3682 45.787 78.3255 45.9269 78.3152C46.0667 78.3048 46.1809 78.3309 46.2695 78.3936C46.3583 78.4584 46.4075 78.5565 46.4173 78.688C46.4269 78.8174 46.3925 78.9197 46.3141 78.9947C46.2357 79.0698 46.1266 79.1125 45.9868 79.1229C45.8469 79.1333 45.7338 79.107 45.6473 79.0442C45.5607 78.9814 45.5127 78.8852 45.5031 78.7558C45.4932 78.6223 45.5264 78.518 45.6027 78.4431Z" fill="#FF5A19" style="transition: none !important; animation-duration: 0s !important; animation-delay: -0.0001s; animation-play-state: paused; fill: rgb(255, 90, 25); transform-origin: 0px 0px; transition-property: none; visibility: visible"></path><path d="M39.6162 76.8258L39.8687 77.7193L41.3497 77.8277L41.7265 76.9802L42.456 77.0336L40.7044 80.667L40.0751 80.6209L38.8741 76.7715L39.6162 76.8258ZM41.1159 78.3552L40.0201 78.275L40.4598 79.837L41.1159 78.3552Z" fill="#FF5A19" style="transition: none !important; animation-duration: 0s !important; animation-delay: -0.0001s; animation-play-state: paused; fill: rgb(255, 90, 25); transform-origin: 0px 0px; transition-property: none; visibility: visible"></path><path d="M32.7626 78.633L32.8884 78.137C33.1623 78.2065 33.3268 78.2471 33.3821 78.259C33.2529 78.0535 33.221 77.8219 33.2863 77.5643C33.3579 77.2823 33.5172 77.0798 33.7643 76.9568C34.0089 76.8353 34.3067 76.8191 34.6576 76.9081C34.8422 76.955 34.9963 77.0157 35.1199 77.0902C35.1896 77.0539 35.2321 77.0053 35.2476 76.9445C35.263 76.8836 35.2505 76.8308 35.2101 76.7859C35.1696 76.7411 35.0926 76.7 34.979 76.6626L34.1714 76.3864C33.9305 76.3059 33.7561 76.1893 33.648 76.0366C33.5373 75.8855 33.5095 75.7014 33.5646 75.4843C33.6346 75.2084 33.8185 75.024 34.1163 74.9312C34.412 74.8378 34.7871 74.8487 35.2415 74.964C36.051 75.1694 36.398 75.4992 36.2827 75.9537C36.2143 76.2235 36.0152 76.3997 35.6855 76.4823C35.8236 76.6274 35.8689 76.7933 35.8216 76.98C35.7727 77.1727 35.6476 77.3126 35.4463 77.3997C35.5877 77.6083 35.6213 77.8587 35.5472 78.1508C35.4726 78.445 35.313 78.6528 35.0684 78.7743C34.8238 78.8957 34.525 78.9117 34.172 78.8222C34.0807 78.799 33.9864 78.7664 33.8891 78.7245C33.4809 78.7505 33.1054 78.72 32.7626 78.633ZM34.5364 77.3859C34.1773 77.2948 33.9571 77.4095 33.8758 77.73C33.8362 77.8862 33.8528 78.0167 33.9255 78.1216C33.9962 78.2259 34.1188 78.3002 34.2932 78.3444C34.4657 78.3882 34.6088 78.3813 34.7227 78.3238C34.8346 78.2658 34.9104 78.1587 34.95 78.0025C35.0313 77.682 34.8935 77.4765 34.5364 77.3859ZM34.4783 75.9169L35.3225 76.2023C35.5282 76.166 35.6509 76.0697 35.6905 75.9135C35.7193 75.7999 35.6897 75.7039 35.6017 75.6254C35.5121 75.5444 35.3446 75.4727 35.0991 75.4105C34.7989 75.3343 34.5759 75.3112 34.4301 75.3411C34.2848 75.369 34.1967 75.4439 34.1658 75.5656C34.1447 75.6488 34.1587 75.7171 34.2078 75.7705C34.2568 75.824 34.347 75.8728 34.4783 75.9169Z" fill="#FF5A19" style="transition: none !important; animation-duration: 0s !important; animation-delay: -0.0001s; animation-play-state: paused; fill: rgb(255, 90, 25); transform-origin: 0px 0px; transition-property: none; visibility: visible"></path><path d="M30.1477 77.5891C29.7815 77.451 29.5382 77.2361 29.4178 76.9446C29.2966 76.6551 29.3151 76.3008 29.4732 75.8817C29.5264 75.7408 29.5683 75.6358 29.5988 75.5667L31.414 76.2516C31.5267 75.7752 31.3294 75.4413 30.8222 75.2499C30.5305 75.1398 30.2301 75.088 29.9212 75.0945L30.1185 74.5717C30.4494 74.578 30.7843 74.645 31.123 74.7729C31.5636 74.9391 31.856 75.187 32.0001 75.5165C32.1422 75.8453 32.1313 76.227 31.9673 76.6617C31.8055 77.0906 31.5616 77.39 31.2357 77.5601C30.9098 77.7302 30.5471 77.7398 30.1477 77.5891ZM30.3527 77.0725C30.525 77.1376 30.6882 77.1376 30.8424 77.0728C30.9959 77.0099 31.1271 76.8816 31.236 76.6878L30.02 76.229C29.8815 76.6554 29.9924 76.9366 30.3527 77.0725Z" fill="#FF5A19" style="transition: none !important; animation-duration: 0s !important; animation-delay: -0.0001s; animation-play-state: paused; fill: rgb(255, 90, 25); transform-origin: 0px 0px; transition-property: none; visibility: visible"></path><path d="M26.0531 75.7814C25.4119 75.4493 25.2704 74.9376 25.6285 74.2463L26.4242 72.7103L27.0151 73.0165L26.2441 74.505C26.0438 74.8916 26.1147 75.1734 26.4566 75.3505C26.6945 75.4738 26.9508 75.484 27.2256 75.3812L28.1469 73.6027L28.7351 73.9074L27.4412 76.4051L26.9423 76.1466L27.0218 75.8908C26.6956 75.9835 26.3727 75.947 26.0531 75.7814Z" fill="#FF5A19" style="transition: none !important; animation-duration: 0s !important; animation-delay: -0.0001s; animation-play-state: paused; fill: rgb(255, 90, 25); transform-origin: 0px 0px; transition-property: none; visibility: visible"></path><path d="M23.7395 71.6327C23.5771 71.5254 23.3966 71.4512 23.1979 71.4101L23.501 70.9519C23.7374 71.0079 23.9796 71.1178 24.2275 71.2818C24.5156 71.4723 24.676 71.685 24.7088 71.9199C24.7398 72.1538 24.6538 72.4243 24.4506 72.7315L23.7857 73.7371L24.1418 73.9726L23.8197 74.4596L23.4505 74.2155L22.9116 74.706L22.524 74.4497L22.9137 73.8605L22.0286 73.2752L22.3507 72.7881L23.2358 73.3734L23.8626 72.4255C23.9815 72.2457 24.0317 72.0957 24.0133 71.9757C23.9949 71.8556 23.9036 71.7413 23.7395 71.6327Z" fill="#FF5A19" style="transition: none !important; animation-duration: 0s !important; animation-delay: -0.0001s; animation-play-state: paused; fill: rgb(255, 90, 25); transform-origin: 0px 0px; transition-property: none; visibility: visible"></path><path d="M19.7614 71.6749C19.4586 71.427 19.2967 71.1456 19.2758 70.8309C19.2535 70.5179 19.3843 70.1881 19.668 69.8415C19.7635 69.725 19.8367 69.6388 19.8877 69.5832L21.3888 70.8124C21.6478 70.3969 21.5676 70.0175 21.1483 69.6741C20.907 69.4765 20.639 69.3314 20.3442 69.2388L20.6982 68.8065C21.0098 68.9182 21.3056 69.0888 21.5858 69.3182C21.9501 69.6165 22.1479 69.9449 22.1791 70.3031C22.2087 70.6601 22.0763 71.0183 21.7819 71.3778C21.4915 71.7324 21.1647 71.9382 20.8016 71.9952C20.4384 72.0522 20.0917 71.9454 19.7614 71.6749ZM20.1207 71.251C20.2632 71.3677 20.4179 71.4199 20.5847 71.4078C20.7502 71.3972 20.9156 71.3176 21.0807 71.1688L20.0751 70.3453C19.8076 70.7051 19.8228 71.007 20.1207 71.251Z" fill="#FF5A19" style="transition: none !important; animation-duration: 0s !important; animation-delay: -0.0001s; animation-play-state: paused; fill: rgb(255, 90, 25); transform-origin: 0px 0px; transition-property: none; visibility: visible"></path><path d="M17.7244 65.6509C18.0024 65.9667 18.1866 66.266 18.2768 66.5491L17.8362 66.937C17.7462 66.6036 17.5815 66.301 17.3423 66.0293C17.1998 65.8675 17.0771 65.7677 16.9742 65.7301C16.8684 65.6922 16.7723 65.7113 16.6859 65.7874C16.6058 65.8579 16.5766 65.9435 16.5984 66.0443C16.6188 66.1434 16.7004 66.3058 16.8433 66.5314C17.0192 66.8199 17.1088 67.0658 17.1122 67.2692C17.1142 67.471 17.0226 67.6535 16.8372 67.8167C16.6252 68.0034 16.3947 68.0711 16.1459 68.0197C15.8957 67.9667 15.6454 67.798 15.3951 67.5137C15.1475 67.2326 14.976 66.9681 14.8805 66.7203L15.3023 66.349C15.4185 66.6425 15.5811 66.9079 15.79 67.1451C15.9172 67.2896 16.0279 67.379 16.1222 67.4131C16.2148 67.4487 16.298 67.4339 16.3719 67.3689C16.4441 67.3053 16.4679 67.223 16.4432 67.1221C16.417 67.0196 16.3287 66.8464 16.1781 66.6026C16.0004 66.3184 15.9149 66.0772 15.9216 65.8789C15.9253 65.6805 16.0261 65.4941 16.224 65.3198C16.4424 65.1276 16.681 65.0597 16.9399 65.1162C17.1987 65.1727 17.4603 65.3509 17.7244 65.6509Z" fill="#FF5A19" style="transition: none !important; animation-duration: 0s !important; animation-delay: -0.0001s; animation-play-state: paused; fill: rgb(255, 90, 25); transform-origin: 0px 0px; transition-property: none; visibility: visible"></path><path d="M12.922 64.4224C12.6961 64.1027 12.6149 63.7885 12.6785 63.4796C12.7404 63.1719 12.9543 62.8888 13.32 62.6303C13.4431 62.5433 13.5366 62.4798 13.6006 62.4397L14.7202 64.0242C15.0805 63.6927 15.1043 63.3056 14.7914 62.8629C14.6115 62.6082 14.3917 62.397 14.1323 62.2293L14.5886 61.9068C14.8592 62.0975 15.0989 62.3406 15.3079 62.6363C15.5797 63.0209 15.6829 63.39 15.6176 63.7437C15.5511 64.0956 15.3281 64.4057 14.9487 64.6738C14.5744 64.9384 14.2046 65.0497 13.8394 65.008C13.4742 64.9663 13.1684 64.771 12.922 64.4224ZM13.3812 64.1094C13.4875 64.2598 13.6226 64.3513 13.7867 64.384C13.9491 64.4179 14.1296 64.3852 14.3284 64.2857L13.5783 63.2243C13.2247 63.4998 13.1589 63.7949 13.3812 64.1094Z" fill="#FF5A19" style="transition: none !important; animation-duration: 0s !important; animation-delay: -0.0001s; animation-play-state: paused; fill: rgb(255, 90, 25); transform-origin: 0px 0px; transition-property: none; visibility: visible"></path><path d="M13.8661 60.6085L10.3949 62.6328L10.0612 62.0606L13.5324 60.0363L13.8661 60.6085Z" fill="#FF5A19" style="transition: none !important; animation-duration: 0s !important; animation-delay: -0.0001s; animation-play-state: paused; fill: rgb(255, 90, 25); transform-origin: 0px 0px; transition-property: none; visibility: visible"></path><path d="M9.63792 58.8678C9.47118 58.5137 9.44602 58.1901 9.56246 57.897C9.677 57.6048 9.93687 57.3633 10.3421 57.1725C10.4784 57.1083 10.5815 57.062 10.6515 57.0337L11.4781 58.7889C11.8906 58.5253 11.9814 58.1482 11.7505 57.6578C11.6176 57.3757 11.438 57.1294 11.2117 56.9191L11.7173 56.681C11.9505 56.9159 12.1442 57.1971 12.2985 57.5247C12.4991 57.9507 12.5365 58.3321 12.4106 58.669C12.2838 59.004 12.0102 59.2705 11.5899 59.4685C11.1752 59.6637 10.7917 59.709 10.4393 59.6043C10.087 59.4996 9.81983 59.2541 9.63792 58.8678ZM10.1446 58.6396C10.2231 58.8062 10.3403 58.9199 10.4961 58.9807C10.6501 59.0424 10.8336 59.0415 11.0467 58.9782L10.493 57.8024C10.0967 58.0121 9.98058 58.2912 10.1446 58.6396Z" fill="#FF5A19" style="transition: none !important; animation-duration: 0s !important; animation-delay: -0.0001s; animation-play-state: paused; fill: rgb(255, 90, 25); transform-origin: 0px 0px; transition-property: none; visibility: visible"></path><path d="M10.8717 54.0394C11.0234 54.4764 11.0161 54.8544 10.8499 55.1735C10.6817 55.4932 10.3801 55.7286 9.94514 55.8795C9.52201 56.0264 9.13603 56.0185 8.78721 55.856C8.43771 55.6915 8.18645 55.3888 8.03345 54.9479C7.94357 54.6888 7.90734 54.4599 7.92476 54.2612L8.46751 54.0728C8.44614 54.273 8.47662 54.4917 8.55895 54.729C8.65021 54.9919 8.79799 55.1688 9.0023 55.2597C9.20661 55.3505 9.44421 55.3489 9.71509 55.2549C9.98598 55.1609 10.1762 55.0196 10.2857 54.8309C10.3926 54.641 10.4008 54.4155 10.3102 54.1545C10.2313 53.9271 10.1064 53.7268 9.9355 53.5535L10.4842 53.3631C10.6458 53.5352 10.775 53.7606 10.8717 54.0394Z" fill="#FF5A19" style="transition: none !important; animation-duration: 0s !important; animation-delay: -0.0001s; animation-play-state: paused; fill: rgb(255, 90, 25); transform-origin: 0px 0px; transition-property: none; visibility: visible"></path><path d="M6.84287 52.593C6.87528 52.7186 6.86595 52.8291 6.81488 52.9244C6.76178 53.0202 6.67241 53.0843 6.54676 53.1168C6.41908 53.1497 6.30884 53.137 6.21602 53.0788C6.12268 53.0186 6.06007 52.9267 6.02818 52.8031C5.99526 52.6754 6.00534 52.5637 6.05844 52.4678C6.11101 52.37 6.20113 52.3046 6.32881 52.2717C6.45446 52.2393 6.56395 52.2532 6.6573 52.3134C6.74809 52.3721 6.80995 52.4653 6.84287 52.593ZM10.1688 52.0756L7.44502 52.7781L7.27959 52.1367L10.0033 51.4342L10.1688 52.0756Z" fill="#FF5A19" style="transition: none !important; animation-duration: 0s !important; animation-delay: -0.0001s; animation-play-state: paused; fill: rgb(255, 90, 25); transform-origin: 0px 0px; transition-property: none; visibility: visible"></path><path d="M9.50514 48.7196C9.57608 49.1576 9.50165 49.5226 9.28183 49.8148C9.06201 50.1069 8.72691 50.2895 8.27652 50.3624C7.82201 50.4361 7.44075 50.3664 7.13274 50.1534C6.82266 49.9407 6.63198 49.6143 6.5607 49.1743C6.48975 48.7363 6.56419 48.3712 6.78401 48.0791C7.00349 47.7848 7.3374 47.6014 7.78571 47.5288C8.24023 47.4552 8.62269 47.5257 8.9331 47.7405C9.24318 47.9532 9.43385 48.2795 9.50514 48.7196ZM8.94272 48.8011C8.90423 48.5636 8.79457 48.3905 8.61374 48.282C8.43051 48.1717 8.1953 48.1399 7.90813 48.1864C7.61889 48.2332 7.40681 48.3376 7.27189 48.4993C7.13456 48.6594 7.08514 48.8582 7.12362 49.0958C7.16177 49.3313 7.27247 49.5042 7.4557 49.6145C7.63653 49.723 7.8695 49.7542 8.15461 49.708C8.44384 49.6611 8.65713 49.5577 8.79445 49.3976C8.93145 49.2355 8.98087 49.0367 8.94272 48.8011Z" fill="#FF5A19" style="transition: none !important; animation-duration: 0s !important; animation-delay: -0.0001s; animation-play-state: paused; fill: rgb(255, 90, 25); transform-origin: 0px 0px; transition-property: none; visibility: visible"></path><path d="M6.07075 44.5196C6.04169 43.7982 6.41613 43.4218 7.19406 43.3904L8.92245 43.3208L8.94923 43.9858L7.27417 44.0533C6.8392 44.0708 6.62946 44.272 6.64496 44.6567C6.65574 44.9244 6.77383 45.1522 6.99924 45.34L9.00053 45.2594L9.02718 45.9212L6.21659 46.0344L6.19398 45.4729L6.45558 45.4153C6.21351 45.1779 6.08524 44.8793 6.07075 44.5196Z" fill="#FF5A19" style="transition: none !important; animation-duration: 0s !important; animation-delay: -0.0001s; animation-play-state: paused; fill: rgb(255, 90, 25); transform-origin: 0px 0px; transition-property: none; visibility: visible"></path><path d="M6.11402 40.5193C6.14736 40.079 6.26626 39.77 6.4707 39.5924C6.67322 39.4125 6.98109 39.3382 7.3943 39.3695L9.09724 39.4984L9.05482 40.0588L8.81719 40.0786C9.0122 40.3305 9.09518 40.6485 9.0661 41.0325C9.04398 41.3247 8.95155 41.5475 8.78881 41.701C8.62623 41.8524 8.41241 41.918 8.14737 41.898C7.87607 41.8774 7.66927 41.7673 7.52697 41.5677C7.38467 41.368 7.326 41.1033 7.35097 40.7735C7.37198 40.496 7.4261 40.2524 7.51333 40.0428L7.29421 40.0262C7.09803 40.0114 6.95209 40.0539 6.85638 40.1537C6.75859 40.2533 6.70084 40.42 6.68314 40.6537C6.6585 40.9793 6.69369 41.2768 6.78872 41.5464L6.20959 41.5026C6.11934 41.1977 6.08748 40.8699 6.11402 40.5193ZM8.57367 40.8C8.59437 40.5266 8.52057 40.2954 8.35228 40.1063L7.96411 40.077C7.88362 40.2808 7.83626 40.4766 7.82204 40.6644C7.79486 41.0233 7.90962 41.2125 8.16631 41.232C8.41466 41.2508 8.55044 41.1068 8.57367 40.8Z" fill="#FF5A19" style="transition: none !important; animation-duration: 0s !important; animation-delay: -0.0001s; animation-play-state: paused; fill: rgb(255, 90, 25); transform-origin: 0px 0px; transition-property: none; visibility: visible"></path><path d="M10.1062 38.3009C9.87869 37.9925 9.6451 37.8187 9.40548 37.7797L9.40195 37.8014C9.38311 37.9171 9.33045 38.006 9.24398 38.0683C9.15544 38.1302 9.04816 38.1509 8.92216 38.1304C8.79202 38.1092 8.69529 38.0521 8.63198 37.9591C8.5666 37.8657 8.54468 37.753 8.56621 37.6208C8.61767 37.3047 8.84068 37.1788 9.23523 37.2431C9.40255 37.2703 9.56985 37.3368 9.73712 37.4425C9.90439 37.5482 10.0525 37.6804 10.1814 37.8393L10.1062 38.3009Z" fill="#FF5A19" style="transition: none !important; animation-duration: 0s !important; animation-delay: -0.0001s; animation-play-state: paused; fill: rgb(255, 90, 25); transform-origin: 0px 0px; transition-property: none; visibility: visible"></path><path d="M7.93286 31.4947L8.14463 30.8142L10.488 32.7502L10.2949 33.3707L7.26675 33.6349L7.48692 32.9275L8.63676 32.8777C9.09169 32.8527 9.46817 32.8438 9.7662 32.8511C9.53618 32.7028 9.22691 32.4816 8.8384 32.1875L7.93286 31.4947Z" fill="#FF5A19" style="transition: none !important; animation-duration: 0s !important; animation-delay: -0.0001s; animation-play-state: paused; fill: rgb(255, 90, 25); transform-origin: 0px 0px; transition-property: none; visibility: visible"></path><path d="M11.7928 29.4723C11.6129 29.8779 11.351 30.1429 11.0073 30.2675C10.6635 30.3921 10.2831 30.3618 9.86607 30.1768C9.44519 29.9901 9.16397 29.7234 9.02241 29.3767C8.87895 29.0291 8.8976 28.6516 9.07837 28.2441C9.25829 27.8385 9.52012 27.5735 9.86386 27.4489C10.2085 27.3224 10.5883 27.3513 11.0035 27.5355C11.4244 27.7222 11.7061 27.9903 11.8487 28.3397C11.9922 28.6873 11.9735 29.0648 11.7928 29.4723ZM11.2772 29.2333C11.3748 29.0133 11.3775 28.8084 11.2854 28.6187C11.1922 28.4262 11.0126 28.271 10.7467 28.1531C10.4788 28.0342 10.2442 28.0057 10.0428 28.0675C9.84032 28.1265 9.69028 28.266 9.59268 28.486C9.49593 28.7041 9.49416 28.9094 9.58737 29.1018C9.67952 29.2915 9.8576 29.445 10.1216 29.5621C10.3894 29.6809 10.6246 29.7108 10.8271 29.6518C11.0304 29.5909 11.1804 29.4514 11.2772 29.2333Z" fill="#FF5A19" style="transition: none !important; animation-duration: 0s !important; animation-delay: -0.0001s; animation-play-state: paused; fill: rgb(255, 90, 25); transform-origin: 0px 0px; transition-property: none; visibility: visible"></path><path d="M13.6359 25.8348C13.4031 26.2345 13.1116 26.4752 12.7612 26.557C12.4091 26.6377 12.034 26.5621 11.6361 26.3304C11.2491 26.105 11.0036 25.8071 10.8997 25.4366C10.7969 25.0642 10.8629 24.6764 11.0977 24.2731C11.2357 24.0362 11.3858 23.8596 11.5479 23.7433L12.0444 24.0324C11.8786 24.1466 11.7325 24.3122 11.6061 24.5292C11.4661 24.7697 11.4281 24.9971 11.4923 25.2113C11.5565 25.4255 11.7125 25.6047 11.9602 25.749C12.208 25.8933 12.4391 25.9455 12.6536 25.9058C12.8674 25.8631 13.0438 25.7224 13.1828 25.4837C13.3039 25.2757 13.3746 25.0504 13.3947 24.8079L13.8966 25.1002C13.8713 25.3349 13.7844 25.5798 13.6359 25.8348Z" fill="#FF5A19" style="transition: none !important; animation-duration: 0s !important; animation-delay: -0.0001s; animation-play-state: paused; fill: rgb(255, 90, 25); transform-origin: 0px 0px; transition-property: none; visibility: visible"></path><path d="M12.2988 20.8506L12.362 21.8427L11.9115 21.8784L11.7291 20.4331L13.1521 20.1643L13.2582 20.6196L12.2988 20.8506ZM13.0286 21.3154C13.2599 20.9997 13.5322 20.8229 13.8453 20.7851C14.1567 20.7461 14.4931 20.859 14.8543 21.1237C14.9759 21.2128 15.0658 21.2813 15.1241 21.3292L13.9773 22.8941C14.4061 23.1305 14.7806 23.03 15.1011 22.5928C15.2854 22.3413 15.4159 22.0658 15.4925 21.7665L15.9432 22.0968C15.8484 22.4139 15.6939 22.7185 15.4799 23.0106C15.2016 23.3904 14.8843 23.6055 14.5283 23.6559C14.1734 23.7046 13.8086 23.5917 13.4338 23.3171C13.0641 23.0461 12.8411 22.7309 12.7647 22.3713C12.6882 22.0117 12.7762 21.6597 13.0286 21.3154ZM13.4712 21.6514C13.3624 21.8 13.3185 21.9572 13.3396 22.1232C13.359 22.2879 13.4474 22.4487 13.6049 22.6056L14.3731 21.5573C13.9995 21.3094 13.6989 21.3408 13.4712 21.6514Z" fill="#FF5A19" style="transition: none !important; animation-duration: 0s !important; animation-delay: -0.0001s; animation-play-state: paused; fill: rgb(255, 90, 25); transform-origin: 0px 0px; transition-property: none; visibility: visible"></path><path d="M19.1953 18.7028C18.8655 19.0271 18.5209 19.1826 18.1614 19.1692C17.8004 19.1543 17.4585 18.9827 17.1356 18.6544C16.8216 18.335 16.6632 17.983 16.6606 17.5981C16.6594 17.2119 16.8252 16.8551 17.158 16.5279C17.3534 16.3356 17.5447 16.2048 17.7318 16.1353L18.1346 16.545C17.9446 16.6115 17.7601 16.7327 17.581 16.9088C17.3825 17.104 17.286 17.3133 17.2915 17.5369C17.2971 17.7604 17.4003 17.9744 17.6014 18.1788C17.8024 18.3833 18.0116 18.4945 18.229 18.5126C18.4465 18.5278 18.6537 18.4385 18.8507 18.2448C19.0223 18.0761 19.1497 17.8773 19.2331 17.6486L19.6403 18.0628C19.5541 18.2825 19.4057 18.4959 19.1953 18.7028Z" fill="#FF5A19" style="transition: none !important; animation-duration: 0s !important; animation-delay: -0.0001s; animation-play-state: paused; fill: rgb(255, 90, 25); transform-origin: 0px 0px; transition-property: none; visibility: visible"></path><path d="M19.9477 14.0586C20.027 13.9936 20.0968 13.95 20.157 13.9277L20.5649 14.4255C20.4972 14.4485 20.4147 14.4998 20.3176 14.5794C20.0845 14.7704 19.9866 15.0373 20.024 15.3801L21.182 16.7934L20.6696 17.2132L18.8868 15.0375L19.3215 14.6813L19.5706 14.8912C19.5727 14.5404 19.6984 14.2629 19.9477 14.0586Z" fill="#FF5A19" style="transition: none !important; animation-duration: 0s !important; animation-delay: -0.0001s; animation-play-state: paused; fill: rgb(255, 90, 25); transform-origin: 0px 0px; transition-property: none; visibility: visible"></path><path d="M22.2868 12.3403C22.6122 12.1229 22.9285 12.05 23.2357 12.1216C23.5416 12.1916 23.819 12.4127 24.0679 12.7851C24.1516 12.9104 24.2126 13.0056 24.251 13.0705L22.6378 14.1484C22.9598 14.5172 23.3461 14.5511 23.7968 14.2499C24.0561 14.0767 24.273 13.8626 24.4474 13.6076L24.7579 14.0722C24.5602 14.3377 24.3109 14.571 24.0098 14.7721C23.6182 15.0338 23.2465 15.1273 22.8947 15.0528C22.5446 14.9771 22.2405 14.7461 21.9824 14.3597C21.7277 13.9786 21.6261 13.6061 21.6774 13.2421C21.7287 12.8781 21.9318 12.5775 22.2868 12.3403ZM22.5877 12.8075C22.4345 12.9099 22.3395 13.0426 22.3025 13.2057C22.2643 13.3671 22.2924 13.5485 22.3866 13.7498L23.4673 13.0278C23.2011 12.667 22.9079 12.5936 22.5877 12.8075Z" fill="#FF5A19" style="transition: none !important; animation-duration: 0s !important; animation-delay: -0.0001s; animation-play-state: paused; fill: rgb(255, 90, 25); transform-origin: 0px 0px; transition-property: none; visibility: visible"></path><path d="M26.9236 13.011C26.5508 13.206 26.2163 13.3137 25.9199 13.3342L25.6477 12.814C25.993 12.8058 26.3261 12.7177 26.6469 12.5499C26.8379 12.45 26.9639 12.3545 27.025 12.2635C27.0869 12.1697 27.0912 12.0718 27.0378 11.9698C26.9884 11.8752 26.9121 11.8265 26.8091 11.8238C26.7079 11.82 26.5308 11.8607 26.2777 11.9459C25.9557 12.0482 25.6955 12.0768 25.4972 12.0318C25.3007 11.9858 25.1452 11.8534 25.0307 11.6345C24.8997 11.3842 24.8888 11.1443 24.9978 10.9148C25.1087 10.6843 25.332 10.4813 25.6677 10.3057C25.9996 10.132 26.2973 10.0283 26.5607 9.99443L26.8212 10.4924C26.5083 10.5355 26.2119 10.6304 25.9319 10.7769C25.7613 10.8661 25.6482 10.9525 25.5926 11.0359C25.5361 11.1174 25.5306 11.2018 25.5762 11.2889C25.6208 11.3742 25.6951 11.4169 25.799 11.4168C25.9048 11.4158 26.094 11.3712 26.3667 11.2828C26.6849 11.1778 26.9395 11.152 27.1305 11.2056C27.3224 11.2564 27.4795 11.3986 27.6018 11.6323C27.7366 11.89 27.7458 12.138 27.6295 12.376C27.5131 12.614 27.2778 12.8257 26.9236 13.011Z" fill="#FF5A19" style="transition: none !important; animation-duration: 0s !important; animation-delay: -0.0001s; animation-play-state: paused; fill: rgb(255, 90, 25); transform-origin: 0px 0px; transition-property: none; visibility: visible"></path><path d="M30.3954 11.3943C29.966 11.5663 29.5881 11.5769 29.2615 11.4259C28.9342 11.273 28.6849 10.9828 28.5136 10.5554C28.347 10.1397 28.3367 9.75376 28.4826 9.39767C28.6304 9.0408 28.9209 8.77556 29.3542 8.60196C29.6087 8.49997 29.8356 8.453 30.035 8.46103L30.2487 8.99431C30.0478 8.98239 29.8307 9.02314 29.5976 9.11656C29.3392 9.2201 29.1695 9.37606 29.0884 9.58442C29.0073 9.79278 29.0201 10.03 29.1267 10.2962C29.2334 10.5624 29.3835 10.7457 29.5771 10.8462C29.7719 10.944 29.9975 10.9416 30.2539 10.8388C30.4773 10.7493 30.6716 10.6151 30.8366 10.4362L31.0527 10.9753C30.8884 11.1449 30.6693 11.2845 30.3954 11.3943Z" fill="#FF5A19" style="transition: none !important; animation-duration: 0s !important; animation-delay: -0.0001s; animation-play-state: paused; fill: rgb(255, 90, 25); transform-origin: 0px 0px; transition-property: none; visibility: visible"></path><path d="M32.6943 7.45878C33.0709 7.35239 33.3942 7.38067 33.6643 7.54363C33.9337 7.70457 34.1293 8.00055 34.2511 8.43156C34.2921 8.57658 34.3208 8.68591 34.3372 8.75956L32.4701 9.28693C32.6625 9.73714 33.0196 9.88857 33.5412 9.74122C33.8413 9.65645 34.1137 9.51971 34.3583 9.33099L34.5102 9.86876C34.2403 10.0603 33.9311 10.2052 33.5827 10.3037C33.1295 10.4317 32.7471 10.4059 32.4354 10.2265C32.1257 10.0464 31.9078 9.73285 31.7815 9.28572C31.6569 8.84463 31.6751 8.45889 31.8363 8.12848C31.9974 7.79807 32.2834 7.57483 32.6943 7.45878ZM32.8363 7.99608C32.659 8.04614 32.5276 8.14306 32.4421 8.28683C32.356 8.42859 32.3267 8.60976 32.3542 8.83035L33.605 8.47705C33.4631 8.05173 33.2068 7.8914 32.8363 7.99608Z" fill="#FF5A19" style="transition: none !important; animation-duration: 0s !important; animation-delay: -0.0001s; animation-play-state: paused; fill: rgb(255, 90, 25); transform-origin: 0px 0px; transition-property: none; visibility: visible"></path><path d="M35.3389 5.92244L36.0115 5.79627L36.447 8.45834L35.8977 8.56136L35.3389 5.92244ZM36.6794 9.45921C36.6147 9.54587 36.5156 9.60174 36.3819 9.62682C36.2482 9.6519 36.1334 9.63616 36.0376 9.57959C35.9414 9.52097 35.881 9.42584 35.8563 9.29419C35.8312 9.16048 35.8529 9.04888 35.9213 8.9594C35.9897 8.86991 36.0907 8.81263 36.2244 8.78755C36.3581 8.76247 36.471 8.77962 36.5631 8.83902C36.6548 8.89635 36.7133 8.9929 36.7388 9.12866C36.7635 9.26031 36.7437 9.3705 36.6794 9.45921Z" fill="#FF5A19" style="transition: none !important; animation-duration: 0s !important; animation-delay: -0.0001s; animation-play-state: paused; fill: rgb(255, 90, 25); transform-origin: 0px 0px; transition-property: none; visibility: visible"></path><path d="M40.6802 7.41966C40.6032 7.49385 40.4947 7.53546 40.3548 7.5445C40.2148 7.55354 40.1009 7.5263 40.0129 7.46278C39.9248 7.39717 39.8764 7.29857 39.8679 7.16699C39.8596 7.0375 39.8949 6.9356 39.974 6.86127C40.0531 6.78695 40.1626 6.74527 40.3026 6.73623C40.4425 6.72719 40.5554 6.7545 40.6413 6.81816C40.7272 6.88182 40.7744 6.97839 40.7827 7.10788C40.7914 7.24155 40.7572 7.34548 40.6802 7.41966Z" fill="#FF5A19" style="transition: none !important; animation-duration: 0s !important; animation-delay: -0.0001s; animation-play-state: paused; fill: rgb(255, 90, 25); transform-origin: 0px 0px; transition-property: none; visibility: visible"></path></g></g></g><defs style="transition: none !important; animation-duration: 0s !important; visibility: visible"><linearGradient id="paint0_linear_5610_164" x1="21.4621" y1="-15.804" x2="132.483" y2="43.1439" gradientUnits="userSpaceOnUse" style="transition: none !important; animation-duration: 0s !important; animation-delay: -0.0001s; animation-play-state: paused; fill: rgb(110, 193, 228); transform-origin: 0px 0px; transition-property: none; visibility: visible"><stop stop-color="#FFE5E9" stop-opacity="0" style="transition: none !important; animation-duration: 0s !important; stop-color: rgb(255, 229, 233); stop-opacity: 0" /><stop offset="0.427153" stop-color="#F8D5CD" style="transition: none !important; animation-duration: 0s !important; stop-color: rgb(248, 213, 205)" /><stop offset="1" stop-color="#FF7B47" style="transition: none !important; animation-duration: 0s !important; stop-color: rgb(255, 123, 71)" /></linearGradient></defs></svg>