<?xml version="1.0" encoding="UTF-8"?>
<svg xmlns="http://www.w3.org/2000/svg" width="96" height="97" viewBox="0 0 96 97" fill="none" style="transition: none !important; animation-duration: 0s !important; animation-delay: -0.0001s; animation-play-state: paused; display: inline; fill: rgba(2, 1, 1, 0); filter: drop-shadow(rgba(0, 0, 0, 0.3) 1px 0px 6px); height: 115px; opacity: 0.8; transition-property: none; visibility: visible; width: 115px"><g id="Overlay Container" style="transition: none !important; animation-duration: 0s !important; animation-delay: -0.0001s; animation-play-state: paused; fill: rgba(2, 1, 1, 0); transform-origin: 0px 0px; transition-property: none; visibility: visible"><g id="Polygon Container" style="transition: none !important; animation-duration: 0s !important; animation-delay: -0.0001s; animation-play-state: paused; fill: rgba(2, 1, 1, 0); transform-origin: 0px 0px; transition-property: none; visibility: visible"><g id="Ellipse 3" style="transition: none !important; animation-duration: 0s !important; animation-delay: -0.0001s; animation-play-state: paused; fill: rgba(2, 1, 1, 0); transform-origin: 0px 0px; transition-property: none; visibility: visible"><circle cx="47.9807" cy="48.0147" r="20.0803" fill="#191717" style="transition: none !important; animation-duration: 0s !important; animation-delay: -0.0001s; animation-play-state: paused; fill: rgb(25, 23, 23); transform-origin: 0px 0px; transition-property: none; visibility: visible" /><circle cx="47.9807" cy="48.0147" r="24.8996" stroke="url(#paint0_linear_5508_155)" stroke-opacity="0.5" stroke-width="9.63855" style="transition: none !important; animation-duration: 0s !important; animation-delay: -0.0001s; animation-play-state: paused; fill: rgba(2, 1, 1, 0); stroke: url(&quot;#paint0_linear_5508_155&quot;); stroke-opacity: 0.5; stroke-width: 9.63855px; transform-origin: 0px 0px; transition-property: none; visibility: visible" /></g><path id="Polygon 1" d="M55.796 46.5147C56.9506 47.1813 56.9506 48.8478 55.796 49.5145L44.7551 55.889C43.6005 56.5556 42.1572 55.7223 42.1572 54.3891V41.6401C42.1572 40.3068 43.6005 39.4736 44.7551 40.1402L55.796 46.5147Z" fill="#F9F9F9" style="transition: none !important; animation-duration: 0s !important; animation-delay: -0.0001s; animation-play-state: paused; fill: rgb(249, 249, 249); transform-origin: 0px 0px; transition-property: none; visibility: visible"></path></g><g id="curvetext" style="transition: none !important; animation-duration: 0s !important; animation-delay: -0.0001s; animation-name: rotate; animation-play-state: paused; animation-timing-function: linear; fill: rgba(2, 1, 1, 0); transform-origin: 48px 48.5px; transition-property: none; visibility: visible"><path id="A" d="M53.9718 9.59104L53.4703 7.61264L50.4964 7.26734L49.5667 9.07956L48.5226 8.95833L52.1403 2.27436L53.0436 2.37924L55.0394 9.71499L53.9718 9.59104ZM50.9026 6.48224L53.2548 6.75535L52.444 3.49858L50.9026 6.48224Z" fill="white" style="transition: none !important; animation-duration: 0s !important; animation-delay: -0.0001s; animation-play-state: paused; fill: rgb(255, 255, 255); transform-origin: 0px 0px; transition-property: none; visibility: visible"></path><path id="s" d="M59.4096 11.0256C58.6925 10.7866 58.1366 10.481 57.742 10.1088L58.0332 9.23487C58.5125 9.70168 59.0585 10.0371 59.671 10.2413C60.0855 10.3794 60.4117 10.4217 60.6495 10.3682C60.8872 10.3146 61.0484 10.1608 61.1331 9.90688C61.2078 9.68279 61.176 9.48547 61.0378 9.31493C60.9033 9.14563 60.617 8.94647 60.1788 8.71744C59.5924 8.41 59.1996 8.09445 59.0004 7.77079C58.8012 7.44713 58.7731 7.07054 58.9163 6.64104C59.0756 6.16298 59.3749 5.84986 59.8144 5.70169C60.2551 5.54977 60.7929 5.57961 61.4278 5.79119C62.0739 6.00651 62.5744 6.26043 62.9292 6.55295L62.6473 7.39889C62.1929 7.03168 61.6968 6.75846 61.159 6.57924C60.7817 6.45353 60.4842 6.41247 60.2663 6.45606C60.0522 6.5009 59.9085 6.63349 59.835 6.85385C59.7666 7.05926 59.8064 7.24475 59.9546 7.41031C60.1077 7.57338 60.4333 7.78561 60.9313 8.047C61.4716 8.3308 61.8289 8.64075 62.0032 8.97686C62.1825 9.31048 62.1975 9.70138 62.0481 10.1496C61.8813 10.65 61.567 10.9768 61.1052 11.13C60.6433 11.2832 60.0781 11.2483 59.4096 11.0256Z" fill="white" style="transition: none !important; animation-duration: 0s !important; animation-delay: -0.0001s; animation-play-state: paused; fill: rgb(255, 255, 255); transform-origin: 0px 0px; transition-property: none; visibility: visible"></path><path id="s_2" d="M65.8076 13.6564C65.1448 13.2931 64.6525 12.893 64.3308 12.4563L64.7736 11.6485C65.1617 12.1935 65.6389 12.6211 66.205 12.9315C66.5882 13.1416 66.9015 13.2415 67.1451 13.2313C67.3886 13.2212 67.5747 13.0987 67.7034 12.864C67.8169 12.6569 67.8209 12.457 67.7155 12.2645C67.6134 12.0739 67.3673 11.8268 66.9771 11.5231C66.4552 11.1157 66.1251 10.735 65.987 10.3809C65.8489 10.0269 65.8886 9.65135 66.1063 9.25436C66.3485 8.8125 66.699 8.55796 67.1579 8.49075C67.6186 8.42009 68.1424 8.54562 68.7293 8.86733C69.3265 9.19471 69.7735 9.53404 70.0703 9.8853L69.6417 10.6672C69.2602 10.2246 68.821 9.86711 68.3239 9.5946C67.9752 9.40347 67.6898 9.30986 67.4677 9.31379C67.249 9.31961 67.0838 9.42436 66.9722 9.62803C66.8681 9.8179 66.8741 10.0075 66.9903 10.1969C67.1118 10.3847 67.3942 10.6518 67.8374 10.998C68.3182 11.3738 68.6144 11.7427 68.7258 12.1045C68.8425 12.4648 68.7873 12.8521 68.5602 13.2664C68.3067 13.7289 67.939 13.9943 67.4572 14.0624C66.9754 14.1305 66.4255 13.9952 65.8076 13.6564Z" fill="white" style="transition: none !important; animation-duration: 0s !important; animation-delay: -0.0001s; animation-play-state: paused; fill: rgb(255, 255, 255); transform-origin: 0px 0px; transition-property: none; visibility: visible"></path><path id="i" d="M74.6302 11.4363C74.4794 11.3225 74.39 11.1762 74.3621 10.9974C74.3374 10.821 74.3855 10.6526 74.5064 10.4923C74.6296 10.3289 74.7795 10.2348 74.9559 10.21C75.1355 10.1877 75.3007 10.2334 75.4516 10.3472C75.6056 10.4633 75.6934 10.6084 75.715 10.7825C75.7397 10.9589 75.6904 11.1289 75.5672 11.2923C75.4439 11.4558 75.2941 11.5498 75.1176 11.5746C74.9467 11.5985 74.7842 11.5524 74.6302 11.4363ZM70.3952 16.2672L73.581 12.0429L74.3354 12.6118L71.1495 16.8361L70.3952 16.2672Z" fill="white" style="transition: none !important; animation-duration: 0s !important; animation-delay: -0.0001s; animation-play-state: paused; fill: rgb(255, 255, 255); transform-origin: 0px 0px; transition-property: none; visibility: visible"></path><path id="s_3" d="M74.8781 20.197C74.3463 19.6598 73.9884 19.1361 73.8044 18.6258L74.459 17.9776C74.6758 18.6106 75.0113 19.1565 75.4656 19.6153C75.773 19.9258 76.0449 20.1109 76.2812 20.1705C76.5176 20.2301 76.7308 20.1658 76.9211 19.9774C77.0889 19.8112 77.1497 19.6208 77.1034 19.4063C77.0599 19.1945 76.8944 18.8875 76.6069 18.4852C76.2227 17.946 76.0148 17.4871 75.9832 17.1083C75.9517 16.7296 76.0968 16.3809 76.4185 16.0624C76.7766 15.7079 77.1851 15.5637 77.6441 15.63C78.1059 15.6936 78.5722 15.9631 79.0431 16.4387C79.5223 16.9226 79.8541 17.3752 80.0385 17.7965L79.4049 18.4239C79.1653 17.891 78.8461 17.4231 78.4473 17.0203C78.1675 16.7378 77.9206 16.5667 77.7066 16.5072C77.4953 16.4505 77.3071 16.5038 77.1421 16.6673C76.9882 16.8196 76.94 17.0031 76.9974 17.2177C77.0603 17.4324 77.2549 17.7688 77.5811 18.2269C77.935 18.7242 78.1138 19.1621 78.1174 19.5407C78.1267 19.9194 77.9635 20.2749 77.6278 20.6073C77.2529 20.9784 76.8249 21.128 76.3437 21.056C75.8624 20.9841 75.3739 20.6977 74.8781 20.197Z" fill="white" style="transition: none !important; animation-duration: 0s !important; animation-delay: -0.0001s; animation-play-state: paused; fill: rgb(255, 255, 255); transform-origin: 0px 0px; transition-property: none; visibility: visible"></path><path id="t" d="M80.5299 25.5381C80.7465 25.8478 81.0198 26.1082 81.35 26.3192L80.7064 26.7694C80.3176 26.5225 79.9697 26.1797 79.6629 25.7409C79.3244 25.257 79.2037 24.813 79.3006 24.409C79.4008 24.0026 79.7234 23.6088 80.2686 23.2275L82.393 21.7418L81.8887 21.0208L82.6049 20.5199L83.1126 21.2458L84.3149 20.7291L84.7008 21.2808L83.6507 22.0152L84.8521 23.7331L84.1359 24.2339L82.9345 22.5161L80.8682 23.9612C80.5166 24.2071 80.3128 24.4481 80.2569 24.6841C80.2065 24.9212 80.2975 25.2058 80.5299 25.5381Z" fill="white" style="transition: none !important; animation-duration: 0s !important; animation-delay: -0.0001s; animation-play-state: paused; fill: rgb(255, 255, 255); transform-origin: 0px 0px; transition-property: none; visibility: visible"></path><path id="a" d="M87.8434 28.6784C88.174 29.3973 88.2532 29.9935 88.081 30.467C87.9124 30.9389 87.4919 31.3295 86.8195 31.6387L83.8367 33.0107L83.4961 32.2703L83.9246 32.0148C83.3255 31.7486 82.873 31.283 82.567 30.6177C82.3335 30.1099 82.2777 29.6589 82.3997 29.2647C82.5234 28.8742 82.8142 28.5736 83.272 28.3631C83.7262 28.1542 84.1588 28.148 84.5699 28.3446C84.981 28.5412 85.3157 28.9202 85.5739 29.4817C85.7944 29.961 85.9341 30.4579 85.9931 30.9724L86.4813 30.7478C86.864 30.5718 87.1004 30.3417 87.1907 30.0575C87.2862 29.7753 87.2386 29.4267 87.0478 29.0118C86.7796 28.4289 86.4354 27.9632 86.0152 27.6148L86.8199 27.2447C87.2505 27.6533 87.5917 28.1312 87.8434 28.6784ZM83.3846 30.5017C83.6363 31.0489 84.0391 31.4205 84.5928 31.6164L85.3278 31.2784C85.2666 30.7779 85.1472 30.3345 84.9695 29.9482C84.6389 29.2293 84.216 28.9883 83.701 29.2252C83.2039 29.4539 83.0984 29.8793 83.3846 30.5017Z" fill="white" style="transition: none !important; animation-duration: 0s !important; animation-delay: -0.0001s; animation-play-state: paused; fill: rgb(255, 255, 255); transform-origin: 0px 0px; transition-property: none; visibility: visible"></path><path id="n" d="M91.9263 42.4781C92.0847 43.8309 91.4405 44.592 89.9937 44.7614L86.7504 45.141L86.6405 44.2026L89.7959 43.8333C90.75 43.7216 91.1774 43.2415 91.0781 42.393C91.0447 42.1076 90.9476 41.8375 90.787 41.5829C90.6303 41.3277 90.4169 41.1129 90.1468 40.9384L86.311 41.3873L86.2012 40.4489L91.4563 39.8339L91.551 40.6432L90.9969 40.7854C91.5341 41.21 91.8439 41.7743 91.9263 42.4781Z" fill="white" style="transition: none !important; animation-duration: 0s !important; animation-delay: -0.0001s; animation-play-state: paused; fill: rgb(255, 255, 255); transform-origin: 0px 0px; transition-property: none; visibility: visible"></path><path id="o" d="M86.5519 51.1051C86.6306 50.2979 86.9417 49.6836 87.4852 49.2619C88.0283 48.8442 88.7249 48.6768 89.5752 48.7597C90.4293 48.843 91.0878 49.1485 91.5505 49.6762C92.0132 50.2039 92.2048 50.8753 92.1254 51.6902C92.0466 52.4974 91.7357 53.1098 91.1926 53.5275C90.6496 53.9453 89.9529 54.1127 89.1027 54.0297C88.2485 53.9464 87.5901 53.6409 87.1273 53.1132C86.6642 52.5894 86.4724 51.9201 86.5519 51.1051ZM87.3724 51.2088C87.3223 51.7221 87.4589 52.1468 87.7821 52.4829C88.1053 52.819 88.5706 53.0167 89.1779 53.0759C89.7891 53.1355 90.2838 53.0315 90.662 52.7638C91.0401 52.4961 91.2542 52.1056 91.3043 51.5924C91.3543 51.0791 91.218 50.6524 90.8951 50.3124C90.5762 49.9728 90.1131 49.7734 89.5058 49.7141C88.8946 49.6545 88.3979 49.7583 88.0159 50.0257C87.6373 50.2973 87.4229 50.6917 87.3724 51.2088Z" fill="white" style="transition: none !important; animation-duration: 0s !important; animation-delay: -0.0001s; animation-play-state: paused; fill: rgb(255, 255, 255); transform-origin: 0px 0px; transition-property: none; visibility: visible"></path><path id="s_4" d="M85.2524 58.4595C85.4713 57.736 85.7612 57.1718 86.1223 56.7669L87.004 57.0337C86.5508 57.5258 86.2307 58.0809 86.0437 58.6989C85.9172 59.1171 85.884 59.4443 85.9441 59.6805C86.0043 59.9167 86.1625 60.0736 86.4187 60.1511C86.6448 60.2195 86.8412 60.1822 87.0078 60.0393C87.1733 59.9002 87.3644 59.6084 87.5811 59.164C87.8721 58.5692 88.1765 58.1678 88.4945 57.9596C88.8125 57.7515 89.1881 57.7129 89.6215 57.844C90.1038 57.99 90.4251 58.2805 90.5855 58.7156C90.7496 59.1519 90.7348 59.6903 90.541 60.3309C90.3438 60.9828 90.1039 61.4901 89.8214 61.853L88.968 61.5948C89.3224 61.1303 89.5816 60.6267 89.7458 60.0841C89.8609 59.7036 89.8937 59.405 89.844 59.1884C89.7932 58.9757 89.6567 58.8356 89.4344 58.7684C89.2271 58.7057 89.0428 58.7507 88.8815 58.9034C88.7227 59.061 88.5196 59.3924 88.2722 59.8975C88.0036 60.4455 87.7038 60.8113 87.3726 60.9949C87.0442 61.1834 86.6538 61.2093 86.2017 61.0725C85.6967 60.9198 85.3613 60.6147 85.1953 60.1573C85.0293 59.6999 85.0484 59.1339 85.2524 58.4595Z" fill="white" style="transition: none !important; animation-duration: 0s !important; animation-delay: -0.0001s; animation-play-state: paused; fill: rgb(255, 255, 255); transform-origin: 0px 0px; transition-property: none; visibility: visible"></path><path id="s_5" d="M82.8015 64.9271C83.1463 64.2545 83.5325 63.7513 83.9601 63.4175L84.7799 63.8378C84.2459 64.2409 83.8317 64.7297 83.5372 65.3042C83.3378 65.6931 83.2466 66.0091 83.2636 66.2523C83.2805 66.4954 83.4081 66.678 83.6463 66.8001C83.8565 66.9079 84.0563 66.9064 84.2458 66.7956C84.4335 66.6883 84.6738 66.4354 84.9665 66.0369C85.3592 65.5039 85.7306 65.1634 86.0807 65.0155C86.4308 64.8676 86.8073 64.8969 87.2101 65.1034C87.6586 65.3332 87.9227 65.6766 88.0027 66.1334C88.0861 66.592 87.9752 67.1191 87.6699 67.7146C87.3592 68.3207 87.0325 68.777 86.6896 69.0834L85.8961 68.6767C86.3279 68.2831 86.673 67.8341 86.9316 67.3296C87.113 66.9757 87.1987 66.6879 87.1886 66.4659C87.1767 66.2475 87.0674 66.0853 86.8607 65.9793C86.668 65.8806 86.4786 65.8919 86.2925 66.0132C86.1081 66.1399 85.8491 66.4296 85.5153 66.8823C85.1529 67.3734 84.7925 67.6796 84.4338 67.801C84.0769 67.9277 83.6882 67.8834 83.2679 67.6679C82.7984 67.4272 82.523 67.0671 82.4415 66.5873C82.36 66.1076 82.48 65.5542 82.8015 64.9271Z" fill="white" style="transition: none !important; animation-duration: 0s !important; animation-delay: -0.0001s; animation-play-state: paused; fill: rgb(255, 255, 255); transform-origin: 0px 0px; transition-property: none; visibility: visible"></path><path id="o_2" d="M78.7755 71.4659C79.2788 70.83 79.873 70.4819 80.5582 70.4217C81.241 70.3646 81.9173 70.6011 82.5872 71.1313C83.2602 71.6638 83.6483 72.2772 83.7516 72.9714C83.8548 73.6656 83.6524 74.3338 83.1443 74.9759C82.641 75.6118 82.048 75.9583 81.3652 76.0154C80.6825 76.0725 80.0061 75.836 79.3363 75.3059C78.6633 74.7733 78.2752 74.1599 78.1719 73.4657C78.0662 72.7746 78.2674 72.108 78.7755 71.4659ZM79.4092 71.9974C79.0891 72.4018 78.974 72.8328 79.0637 73.2904C79.1534 73.748 79.4375 74.1661 79.916 74.5447C80.3976 74.9258 80.8698 75.1063 81.3327 75.086C81.7955 75.0657 82.187 74.8534 82.507 74.449C82.827 74.0446 82.9434 73.612 82.8561 73.1514C82.7719 72.6932 82.4906 72.2747 82.0121 71.8961C81.5305 71.515 81.0568 71.3333 80.5908 71.3512C80.1255 71.3745 79.7316 71.5899 79.4092 71.9974Z" fill="white" style="transition: none !important; animation-duration: 0s !important; animation-delay: -0.0001s; animation-play-state: paused; fill: rgb(255, 255, 255); transform-origin: 0px 0px; transition-property: none; visibility: visible"></path><path id="v" d="M71.8648 85.17L71.0236 85.7392L69.9171 80.0996L70.6605 79.5966L75.4889 82.7179L74.5939 83.3235L72.6471 81.9742C71.6673 81.2919 71.0578 80.8583 70.8185 80.6732C70.9203 81.0274 71.0984 81.7648 71.3529 82.8855L71.8648 85.17Z" fill="white" style="transition: none !important; animation-duration: 0s !important; animation-delay: -0.0001s; animation-play-state: paused; fill: rgb(255, 255, 255); transform-origin: 0px 0px; transition-property: none; visibility: visible"></path><path id="í" d="M68.2991 88.0241L68.9758 88.3389L68.0638 90.6733L67.2127 90.2513L68.2991 88.0241ZM65.5367 82.7194L67.7885 87.5073L66.9335 87.9094L64.6818 83.1215L65.5367 82.7194Z" fill="white" style="transition: none !important; animation-duration: 0s !important; animation-delay: -0.0001s; animation-play-state: paused; fill: rgb(255, 255, 255); transform-origin: 0px 0px; transition-property: none; visibility: visible"></path><path id="d" d="M60.0629 92.8616L59.1484 93.1216L57.081 85.8513L57.8705 85.6268L58.1067 86.1982C58.2406 85.9063 58.4388 85.6535 58.7014 85.4397C58.9601 85.2269 59.2637 85.071 59.612 84.972C60.3088 84.7739 60.9032 84.8422 61.3954 85.177C61.8839 85.5129 62.2524 86.1182 62.5012 86.9929C62.7435 87.8449 62.7093 88.5811 62.3987 89.2015C62.0853 89.8267 61.5367 90.2508 60.7529 90.4737C60.2606 90.6137 59.8223 90.6769 59.4378 90.6635L60.0629 92.8616ZM59.6791 85.8124C59.0884 85.9804 58.6596 86.3724 58.3928 86.9886L59.2052 89.8456C59.6205 89.8666 60.0516 89.8136 60.4984 89.6866C61.0247 89.5369 61.3831 89.257 61.5734 88.8468C61.7648 88.4404 61.7716 87.9248 61.594 87.3C61.4184 86.6828 61.1681 86.2485 60.8429 85.9972C60.5176 85.7459 60.1297 85.6843 59.6791 85.8124Z" fill="white" style="transition: none !important; animation-duration: 0s !important; animation-delay: -0.0001s; animation-play-state: paused; fill: rgb(255, 255, 255); transform-origin: 0px 0px; transition-property: none; visibility: visible"></path><path id="e" d="M51.7052 92.1945C50.967 92.2469 50.3858 92.0652 49.9616 91.6493C49.5377 91.2373 49.2954 90.6033 49.2347 89.7473L49.1987 89.2407L53.0333 88.9686C52.8504 87.8924 52.1856 87.3949 51.039 87.4762C50.4381 87.5189 49.8886 87.6723 49.3903 87.9366L49.3281 87.0589C49.8866 86.8101 50.486 86.663 51.126 86.6176C51.9978 86.5557 52.6825 86.7499 53.1801 87.2C53.6741 87.6543 53.9523 88.3213 54.0147 89.2009C54.0749 90.0491 53.8994 90.7463 53.4883 91.2925C53.0732 91.839 52.4788 92.1396 51.7052 92.1945ZM51.6644 91.3686C52.0728 91.3397 52.4031 91.184 52.6554 90.9017C52.908 90.6233 53.0485 90.2404 53.0771 89.7529L50.2026 89.9568C50.325 90.9585 50.8123 91.4291 51.6644 91.3686Z" fill="white" style="transition: none !important; animation-duration: 0s !important; animation-delay: -0.0001s; animation-play-state: paused; fill: rgb(255, 255, 255); transform-origin: 0px 0px; transition-property: none; visibility: visible"></path><path id="o_3" d="M43.4076 86.4873C44.2112 86.5965 44.8133 86.9306 45.2141 87.4897C45.6109 88.0482 45.7518 88.7507 45.6368 89.5972C45.5211 90.4476 45.1909 91.094 44.6461 91.5364C44.1012 91.9788 43.4231 92.1449 42.6117 92.0346C41.8081 91.9253 41.2079 91.5914 40.8111 91.0329C40.4142 90.4744 40.2734 89.7719 40.3884 88.9254C40.504 88.075 40.8343 87.4286 41.3791 86.9862C41.9201 86.5433 42.5962 86.3769 43.4076 86.4873ZM43.2728 87.3032C42.7618 87.2338 42.3323 87.3542 41.9842 87.6644C41.6361 87.9746 41.4209 88.4321 41.3387 89.0367C41.256 89.6452 41.3412 90.1435 41.5944 90.5315C41.8475 90.9195 42.2296 91.1483 42.7406 91.2178C43.2517 91.2872 43.6832 91.1671 44.0352 90.8574C44.3866 90.5516 44.6035 90.0964 44.6857 89.4917C44.7684 88.8832 44.6834 88.383 44.4308 87.9911C44.1737 87.6025 43.7877 87.3733 43.2728 87.3032Z" fill="white" style="transition: none !important; animation-duration: 0s !important; animation-delay: -0.0001s; animation-play-state: paused; fill: rgb(255, 255, 255); transform-origin: 0px 0px; transition-property: none; visibility: visible"></path><path id="e_2" d="M29.1678 88.186C28.5018 87.8632 28.0886 87.4159 27.9283 86.8439C27.7663 86.2754 27.8724 85.605 28.2466 84.8327L28.4681 84.3757L31.9276 86.052C32.3057 85.0279 31.9775 84.2652 30.9431 83.7639C30.401 83.5013 29.8482 83.3602 29.2845 83.3408L29.6682 82.549C30.2764 82.6119 30.8693 82.7832 31.4467 83.063C32.2332 83.4441 32.7299 83.9539 32.9368 84.5922C33.1384 85.2323 33.047 85.9492 32.6624 86.7428C32.2917 87.508 31.7919 88.0248 31.1631 88.2932C30.5308 88.5599 29.8657 88.5241 29.1678 88.186ZM29.5442 87.4497C29.9127 87.6282 30.2766 87.6581 30.6361 87.5391C30.9938 87.4238 31.3066 87.1619 31.5745 86.7536L28.9812 85.4971C28.5878 86.4263 28.7755 87.0772 29.5442 87.4497Z" fill="white" style="transition: none !important; animation-duration: 0s !important; animation-delay: -0.0001s; animation-play-state: paused; fill: rgb(255, 255, 255); transform-origin: 0px 0px; transition-property: none; visibility: visible"></path><path id="s_6" d="M22.2239 76.9747C22.7779 77.4889 23.1575 77.9971 23.3629 78.4992L22.7362 79.1744C22.4929 78.5511 22.1347 78.0199 21.6615 77.5807C21.3412 77.2834 21.0617 77.11 20.8231 77.0604C20.5845 77.0108 20.3741 77.0841 20.192 77.2803C20.0313 77.4534 19.9786 77.6462 20.0339 77.8586C20.0863 78.0684 20.2646 78.3681 20.5688 78.7579C20.9755 79.2804 21.2025 79.7302 21.25 80.1073C21.2975 80.4843 21.1672 80.8388 20.8593 81.1706C20.5165 81.5399 20.1144 81.7012 19.653 81.6543C19.1889 81.6103 18.7117 81.3607 18.2211 80.9054C17.722 80.4421 17.3714 80.0039 17.1693 79.5908L17.7759 78.9372C18.0377 79.4595 18.3764 79.9135 18.7919 80.2991C19.0833 80.5696 19.3372 80.7301 19.5536 80.7805C19.7671 80.8283 19.9528 80.767 20.1108 80.5968C20.2581 80.4381 20.2986 80.2527 20.2322 80.0407C20.1602 79.8289 19.9516 79.501 19.6064 79.057C19.2318 78.5752 19.0348 78.1452 19.0151 77.767C18.9899 77.3891 19.1379 77.0271 19.4593 76.6808C19.8182 76.2942 20.2395 76.1266 20.7234 76.1783C21.2072 76.2299 21.7074 76.4954 22.2239 76.9747Z" fill="white" style="transition: none !important; animation-duration: 0s !important; animation-delay: -0.0001s; animation-play-state: paused; fill: rgb(255, 255, 255); transform-origin: 0px 0px; transition-property: none; visibility: visible"></path><path id="a_2" d="M12.8446 75.1025C12.3742 74.4662 12.1749 73.8988 12.2468 73.4001C12.3156 72.9037 12.6475 72.4355 13.2426 71.9955L15.8827 70.0436L16.3671 70.6989L15.9999 71.0365C16.6406 71.1747 17.1787 71.5383 17.614 72.127C17.9463 72.5765 18.093 73.0067 18.0539 73.4174C18.0126 73.825 17.7893 74.1785 17.3841 74.4781C16.9821 74.7754 16.5598 74.8697 16.1173 74.7612C15.6747 74.6526 15.2697 74.3499 14.9023 73.8529C14.5887 73.4287 14.3505 72.9708 14.1877 72.4791L13.7556 72.7986C13.4169 73.049 13.2324 73.3226 13.202 73.6192C13.1661 73.915 13.2839 74.2465 13.5554 74.6137C13.9369 75.1297 14.3689 75.5153 14.8513 75.7706L14.1391 76.2971C13.6342 75.985 13.2027 75.5868 12.8446 75.1025ZM16.8373 72.4075C16.4792 71.9232 16.0091 71.6417 15.427 71.5629L14.7765 72.0438C14.9386 72.5213 15.146 72.931 15.3987 73.2728C15.8692 73.9091 16.3323 74.0587 16.7881 73.7217C17.2281 73.3964 17.2445 72.9583 16.8373 72.4075Z" fill="white" style="transition: none !important; animation-duration: 0s !important; animation-delay: -0.0001s; animation-play-state: paused; fill: rgb(255, 255, 255); transform-origin: 0px 0px; transition-property: none; visibility: visible"></path><path id="i_2" d="M8.17279 69.6852C8.26068 69.8525 8.27908 70.0229 8.22798 70.1965C8.17506 70.3666 8.05973 70.4984 7.88199 70.5917C7.70077 70.687 7.5251 70.7081 7.35499 70.6552C7.18305 70.5988 7.05313 70.4869 6.96524 70.3196C6.87552 70.1489 6.85804 69.9802 6.91279 69.8135C6.96572 69.6434 7.08279 69.5108 7.26401 69.4156C7.44523 69.3203 7.6209 69.2992 7.79101 69.3521C7.95581 69.4034 8.08307 69.5144 8.17279 69.6852ZM14.0643 67.1233L9.38051 69.5843L8.94106 68.7479L13.6249 66.2869L14.0643 67.1233Z" fill="white" style="transition: none !important; animation-duration: 0s !important; animation-delay: -0.0001s; animation-play-state: paused; fill: rgb(255, 255, 255); transform-origin: 0px 0px; transition-property: none; visibility: visible"></path><path id="b" d="M5.98247 62.3158C5.76356 61.6584 5.81539 61.0727 6.13797 60.5586C6.45681 60.0458 7.02336 59.6538 7.8376 59.3827C8.67426 59.1041 9.41685 59.0974 10.0654 59.3628C10.7139 59.6281 11.175 60.1717 11.4486 60.9934C11.721 61.8114 11.849 62.5509 11.8327 63.2119L4.83498 65.5422L4.53646 64.6458L7.21451 63.754C6.62326 63.4862 6.21258 63.0068 5.98247 62.3158ZM10.6698 61.2714C10.4833 60.7111 10.174 60.3556 9.74207 60.2049C9.30889 60.0504 8.78789 60.0745 8.17907 60.2772C7.61134 60.4663 7.20916 60.7351 6.97253 61.0836C6.73589 61.4321 6.68972 61.823 6.834 62.2563C6.93102 62.5476 7.09154 62.7991 7.31556 63.0108C7.53585 63.2238 7.77856 63.3794 8.0437 63.4779L10.9234 62.5189C10.9024 62.1317 10.8179 61.7159 10.6698 61.2714Z" fill="white" style="transition: none !important; animation-duration: 0s !important; animation-delay: -0.0001s; animation-play-state: paused; fill: rgb(255, 255, 255); transform-origin: 0px 0px; transition-property: none; visibility: visible"></path><path id="a_3" d="M4.04145 54.1741C3.94899 53.3882 4.05777 52.7967 4.36779 52.3995C4.6739 52.0028 5.19448 51.7612 5.92952 51.6747L9.19027 51.2911L9.28549 52.1004L8.79907 52.2111C9.28664 52.6493 9.5732 53.2319 9.65876 53.9591C9.72408 54.5143 9.63784 54.9605 9.40003 55.2977C9.16177 55.6309 8.79241 55.827 8.29196 55.8859C7.79541 55.9443 7.38201 55.8165 7.05175 55.5026C6.72149 55.1887 6.52025 54.7248 6.44803 54.1109C6.38639 53.587 6.40697 53.0713 6.50978 52.5637L5.97609 52.6265C5.55775 52.6757 5.26175 52.8215 5.08811 53.0639C4.91011 53.3029 4.84778 53.6491 4.90114 54.1027C4.97612 54.74 5.15965 55.2892 5.45173 55.7503L4.57203 55.8538C4.28869 55.3322 4.11183 54.7723 4.04145 54.1741ZM8.8453 53.817C8.77492 53.2188 8.50664 52.741 8.04045 52.3836L7.237 52.4782C7.14063 52.9731 7.11729 53.4317 7.16697 53.8539C7.25943 54.6398 7.58716 54.9996 8.15017 54.9334C8.69363 54.8694 8.92534 54.4973 8.8453 53.817Z" fill="white" style="transition: none !important; animation-duration: 0s !important; animation-delay: -0.0001s; animation-play-state: paused; fill: rgb(255, 255, 255); transform-origin: 0px 0px; transition-property: none; visibility: visible"></path><path id="m" d="M5.14935 36.3958C5.27977 35.8481 5.5516 35.4798 5.96485 35.2909C6.37427 35.1011 6.88918 35.0801 7.50958 35.2278L10.8414 36.0213L10.6225 36.9404L7.33666 36.1579C6.53243 35.9664 6.05234 36.198 5.89639 36.8529C5.776 37.3584 5.92078 37.838 6.33072 38.2918L6.38242 38.3041L10.0876 39.1865L9.86872 40.1056L6.5082 39.3053C5.75376 39.1256 5.29857 39.3632 5.14261 40.0181C5.09245 40.2287 5.1032 40.464 5.17486 40.7239C5.24269 40.9828 5.37671 41.2272 5.57694 41.457L9.33382 42.3517L9.11494 43.2708L3.9679 42.045L4.15668 41.2523L4.72594 41.309C4.35248 40.787 4.24555 40.1909 4.40515 39.5208C4.56384 38.8544 4.94455 38.4453 5.54727 38.2934C5.1078 37.7598 4.97515 37.1272 5.14935 36.3958Z" fill="white" style="transition: none !important; animation-duration: 0s !important; animation-delay: -0.0001s; animation-play-state: paused; fill: rgb(255, 255, 255); transform-origin: 0px 0px; transition-property: none; visibility: visible"></path><path id="a_4" d="M8.16241 28.4564C8.52696 27.7541 8.949 27.3256 9.42851 27.1708C9.90453 27.0143 10.471 27.1065 11.1279 27.4475L14.0419 28.9601L13.6665 29.6834L13.2017 29.502C13.3594 30.1383 13.2695 30.7814 12.9322 31.4313C12.6746 31.9274 12.3528 32.2483 11.9668 32.3939C11.5825 32.5359 11.1668 32.4909 10.7196 32.2588C10.2758 32.0284 10.0054 31.6907 9.90822 31.2455C9.81108 30.8003 9.90489 30.3034 10.1896 29.7548C10.4327 29.2866 10.7392 28.8713 11.1091 28.5089L10.6322 28.2614C10.2583 28.0673 9.93152 28.0219 9.65176 28.125C9.37031 28.2229 9.1244 28.4745 8.91401 28.8798C8.61838 29.4493 8.46203 30.0069 8.44496 30.5525L7.6588 30.1444C7.71705 29.5536 7.88492 28.991 8.16241 28.4564ZM12.3387 30.8571C12.6162 30.3225 12.6623 29.7765 12.4771 29.219L11.759 28.8463C11.4015 29.2018 11.1248 29.5683 10.9289 29.9456C10.5644 30.6479 10.6337 31.1297 11.1368 31.3909C11.6225 31.643 12.0231 31.465 12.3387 30.8571Z" fill="white" style="transition: none !important; animation-duration: 0s !important; animation-delay: -0.0001s; animation-play-state: paused; fill: rgb(255, 255, 255); transform-origin: 0px 0px; transition-property: none; visibility: visible"></path><path id="i_3" d="M10.9743 21.8787C10.8627 22.0312 10.7177 22.1226 10.5393 22.1531C10.3633 22.1804 10.1942 22.1347 10.0322 22.0162C9.86698 21.8953 9.77074 21.7468 9.74347 21.5707C9.71852 21.3915 9.76184 21.2256 9.87343 21.0731C9.98734 20.9175 10.1312 20.8276 10.3049 20.8035C10.4809 20.7762 10.6516 20.823 10.8168 20.9439C10.982 21.0648 11.0782 21.2133 11.1055 21.3893C11.1319 21.5599 11.0882 21.723 10.9743 21.8787ZM15.8659 26.0434L11.596 22.919L12.1539 22.1565L16.4239 25.2809L15.8659 26.0434Z" fill="white" style="transition: none !important; animation-duration: 0s !important; animation-delay: -0.0001s; animation-play-state: paused; fill: rgb(255, 255, 255); transform-origin: 0px 0px; transition-property: none; visibility: visible"></path><path id="s_7" d="M19.7314 21.5032C19.202 22.0427 18.6835 22.4081 18.1759 22.5994L17.5183 21.9542C18.1481 21.7284 18.6891 21.385 19.1413 20.9242C19.4474 20.6123 19.6285 20.3378 19.6848 20.1006C19.741 19.8635 19.6736 19.6511 19.4825 19.4637C19.3139 19.2982 19.1227 19.2402 18.9088 19.2895C18.6976 19.336 18.393 19.506 17.9949 19.7992C17.4613 20.1912 17.0054 20.4057 16.6272 20.4427C16.2489 20.4797 15.8982 20.3396 15.5751 20.0225C15.2154 19.6696 15.0655 19.2632 15.1251 18.8033C15.182 18.3406 15.4448 17.8705 15.9136 17.3928C16.3906 16.9067 16.8384 16.5684 17.2569 16.3779L17.8933 17.0024C17.364 17.2496 16.9008 17.5755 16.5037 17.9802C16.2252 18.264 16.0578 18.5133 16.0013 18.7282C15.9477 18.9403 16.0037 19.1276 16.1695 19.2903C16.324 19.442 16.5082 19.4876 16.722 19.4271C16.9357 19.361 17.2693 19.1616 17.7227 18.8289C18.2148 18.4679 18.6501 18.2828 19.0286 18.2737C19.4071 18.259 19.7649 18.4171 20.1021 18.7479C20.4786 19.1174 20.6343 19.5433 20.5693 20.0255C20.5043 20.5077 20.225 21.0003 19.7314 21.5032Z" fill="white" style="transition: none !important; animation-duration: 0s !important; animation-delay: -0.0001s; animation-play-state: paused; fill: rgb(255, 255, 255); transform-origin: 0px 0px; transition-property: none; visibility: visible"></path><path id="・" d="M29.5312 7.22879C29.7531 7.13268 29.9753 7.09796 30.1977 7.12465C30.4202 7.15134 30.6216 7.23103 30.8021 7.36374C30.9825 7.49645 31.1208 7.67379 31.217 7.89574C31.3099 8.1103 31.3446 8.33249 31.3211 8.56231C31.2944 8.78472 31.2147 8.98617 31.082 9.16664C30.9493 9.34712 30.772 9.48541 30.55 9.58153C30.3354 9.67444 30.1133 9.70915 29.8834 9.68567C29.661 9.65899 29.4596 9.57929 29.2791 9.44658C29.0954 9.30647 28.9571 9.12913 28.8642 8.91458C28.7681 8.69262 28.7334 8.47043 28.7601 8.24802C28.7868 8.0256 28.8665 7.82415 28.9992 7.64368C29.1393 7.46 29.3166 7.32171 29.5312 7.22879Z" fill="white" style="transition: none !important; animation-duration: 0s !important; animation-delay: -0.0001s; animation-play-state: paused; fill: rgb(255, 255, 255); transform-origin: 0px 0px; transition-property: none; visibility: visible"></path></g></g><defs style="transition: none !important; animation-duration: 0s !important; visibility: visible"><linearGradient id="paint0_linear_5508_155" x1="47.9807" y1="27.9344" x2="54.8084" y2="72.6288" gradientUnits="userSpaceOnUse" style="transition: none !important; animation-duration: 0s !important; animation-delay: -0.0001s; animation-play-state: paused; fill: rgba(2, 1, 1, 0); transform-origin: 0px 0px; transition-property: none; visibility: visible"><stop stop-color="#FAA17E" style="transition: none !important; animation-duration: 0s !important; stop-color: rgb(250, 161, 126)" /><stop offset="1" stop-color="#FF5A19" style="transition: none !important; animation-duration: 0s !important; stop-color: rgb(255, 90, 25)" /></linearGradient></defs></svg>